<svg width="202" height="135" viewBox="0 0 202 135" fill="none" xmlns="http://www.w3.org/2000/svg">
<g clip-path="url(#clip0_1241_3821)">
<path d="M72.4575 77.6937C79.3801 65.4475 92.5851 56.0444 106.564 56.9502C96.2526 68.2262 90.2401 82.8064 89.5897 98.1113C89.3602 104.015 89.7162 110.605 85.8185 115.025C83.3933 117.775 79.6864 119.108 76.0416 119.387C72.3967 119.666 68.7527 119.004 65.1565 118.345L64.2841 118.614C63.952 104.531 65.5349 89.94 72.4575 77.6937Z" fill="#F0F0F0"/>
<path d="M106.584 57.2452C96.2474 62.2494 87.4332 70.6071 82.0225 80.7999C80.8527 83.0036 79.8568 85.3414 79.4223 87.8133C78.9877 90.2862 79.2913 92.6402 80.1312 94.989C80.899 97.1362 81.9317 99.2432 82.1672 101.541C82.4153 103.963 81.5293 106.227 79.9343 108.024C77.9828 110.223 75.3621 111.585 72.7532 112.828C69.8565 114.208 66.8259 115.596 64.7743 118.171C64.5257 118.483 64.0587 118.077 64.3069 117.765C67.8765 113.284 73.9867 112.442 78.2239 108.832C80.201 107.148 81.6853 104.854 81.5917 102.167C81.5097 99.8163 80.4467 97.6427 79.6505 95.4753C78.8145 93.1996 78.3976 90.9113 78.6974 88.485C79.0041 86.003 79.9113 83.6211 81.0199 81.397C83.5201 76.3812 86.9418 71.7763 90.8615 67.7956C95.3664 63.2199 100.616 59.453 106.384 56.6577C106.741 56.4848 106.939 57.0734 106.584 57.2452Z" fill="white"/>
<path d="M83.6073 77.3934C82.0226 76.2282 80.9014 74.5344 80.4439 72.6145C79.9865 70.6947 80.2225 68.6738 81.1098 66.9128C81.2906 66.5571 81.8487 66.8229 81.6677 67.1791C80.8384 68.8174 80.6187 70.6999 81.0484 72.4867C81.478 74.2736 82.5287 75.8472 84.0107 76.9234C84.3325 77.1577 83.9273 77.6263 83.6073 77.3934Z" fill="white"/>
<path d="M79.5992 93.9516C83.5701 93.3682 87.1764 91.301 89.699 88.1624C89.9486 87.8512 90.4157 88.2573 90.1663 88.5681C87.5352 91.8293 83.7779 93.9728 79.6444 94.5708C79.2504 94.6276 79.2073 94.0081 79.5992 93.9516Z" fill="white"/>
<path d="M95.6714 63.9837C96.1911 64.5631 96.8458 65.0036 97.5766 65.2656C98.3075 65.5276 99.0916 65.603 99.8585 65.4849C100.252 65.4232 100.294 66.0428 99.9038 66.1041C99.0558 66.2306 98.1899 66.1463 97.3818 65.8586C96.5737 65.5709 95.848 65.0885 95.268 64.4537C95.2083 64.3985 95.1718 64.3225 95.1659 64.2412C95.16 64.1598 95.185 64.0793 95.236 64.0159C95.2897 63.9539 95.3656 63.9158 95.4471 63.9098C95.5287 63.9038 95.6092 63.9303 95.6714 63.9837Z" fill="white"/>
<path d="M134.377 95.5825C134.132 95.6281 133.888 95.6736 133.641 95.7239C130.359 96.3536 127.133 97.2504 123.995 98.4054C123.751 98.4908 123.505 98.5811 123.264 98.6734C115.734 101.537 108.797 105.782 102.808 111.192C100.427 113.347 98.2117 115.681 96.1824 118.174C93.3802 121.617 90.6142 125.575 86.9524 127.82C86.5729 128.058 86.1792 128.273 85.7734 128.462L64.6784 119.663C64.6405 119.619 64.6003 119.58 64.5621 119.535L63.7039 119.223C63.7996 119.087 63.9018 118.948 63.9975 118.812C64.0527 118.733 64.1126 118.656 64.1678 118.577C64.2061 118.525 64.2446 118.473 64.2762 118.423C64.2889 118.406 64.3018 118.389 64.3125 118.376C64.3441 118.327 64.3787 118.285 64.4083 118.24C64.9773 117.462 65.5528 116.687 66.1348 115.914C66.1368 115.909 66.1368 115.909 66.1435 115.906C70.5924 110.03 75.5683 104.476 81.2243 99.8577C81.3945 99.7188 81.5665 99.575 81.7463 99.4401C84.3073 97.3726 87.032 95.5191 89.8932 93.8981C91.4628 93.0155 93.0757 92.2134 94.7259 91.4949C98.9934 89.6465 103.523 88.4847 108.15 88.052C117.373 87.1907 126.767 89.3053 133.841 95.132C134.021 95.2812 134.198 95.4285 134.377 95.5825Z" fill="#F0F0F0"/>
<path d="M134.218 95.832C122.968 93.569 110.927 94.9055 100.505 99.7679C98.2513 100.819 96.0565 102.083 94.2297 103.793C92.4022 105.505 91.2352 107.568 90.4996 109.952C89.8272 112.131 89.3903 114.439 88.2028 116.416C86.951 118.5 84.8879 119.771 82.5385 120.24C79.6639 120.815 76.7556 120.316 73.9285 119.728C70.7894 119.076 67.5392 118.349 64.3591 119.163C63.9737 119.262 63.844 118.655 64.2288 118.557C69.7617 117.14 75.1447 120.167 80.6889 119.85C83.2759 119.702 85.8343 118.77 87.3686 116.567C88.7103 114.641 89.1628 112.262 89.8247 110.049C90.5197 107.726 91.5568 105.647 93.2488 103.891C94.9796 102.095 97.13 100.742 99.3467 99.6376C104.346 97.1465 109.835 95.5415 115.348 94.7364C121.684 93.8105 128.131 93.9815 134.41 95.2419C134.799 95.3201 134.604 95.9097 134.218 95.832Z" fill="white"/>
<path d="M103.81 98.0078C103.242 96.118 103.361 94.0867 104.145 92.2768C104.929 90.467 106.327 88.9963 108.09 88.1275C108.447 87.953 108.734 88.5031 108.376 88.6779C106.733 89.4839 105.431 90.8539 104.704 92.5408C103.977 94.2276 103.874 96.1202 104.413 97.8768C104.53 98.2587 103.926 98.3875 103.81 98.0078Z" fill="white"/>
<path d="M90.6959 108.802C94.2158 110.74 98.3328 111.273 102.226 110.295C102.612 110.197 102.741 110.804 102.356 110.901C98.303 111.912 94.0197 111.349 90.3613 109.324C90.0128 109.13 90.3493 108.61 90.6959 108.802Z" fill="white"/>
<path d="M121.47 94.6052C121.538 95.3825 121.797 96.1305 122.224 96.7822C122.651 97.434 123.232 97.9689 123.915 98.339C124.265 98.5277 123.929 99.0483 123.58 98.8608C122.827 98.4483 122.186 97.8568 121.713 97.1378C121.24 96.4188 120.95 95.5943 120.867 94.7362C120.852 94.656 120.869 94.5732 120.912 94.5047C120.956 94.4362 121.025 94.387 121.103 94.3673C121.183 94.3504 121.267 94.3658 121.335 94.4104C121.404 94.455 121.453 94.525 121.47 94.6052Z" fill="white"/>
<path d="M94.1922 110.1C91.2379 95.7345 87.545 90.9452 87.545 90.9452L86.1342 89.845L84.4377 88.5197L84.4459 88.3493L84.0435 88.2118L83.949 88.1379L83.7941 88.0183L83.7691 88.0452L83.7166 88.1L76.0394 85.4757L66.2997 82.1487L61.7895 76.2534C61.055 75.2933 60.1093 74.5172 59.0266 73.9862C57.944 73.4551 56.7537 73.1834 55.5491 73.1924L41.1452 73.2995C39.1976 73.314 37.3259 74.0607 35.898 75.3926L26.4305 84.2239L11.6784 91.3091L11.6535 91.2841L11.4986 91.3954L9.21925 92.4914L9.31331 92.9838L7.90254 94.0075C7.90254 94.0075 4.20968 98.4639 1.25538 111.83C0.503838 115.231 0.133902 122.527 0.000375239 131.517C-0.00633181 131.972 0.0769331 132.424 0.245326 132.846C0.41372 133.268 0.663883 133.652 0.98127 133.976C1.29866 134.3 1.67694 134.558 2.09411 134.734C2.51129 134.909 2.95903 135 3.41132 135H82.2053L92.0398 135C92.4917 135 92.9392 134.909 93.3561 134.734C93.773 134.558 94.1511 134.301 94.4684 133.977C94.7857 133.654 95.036 133.27 95.2046 132.848C95.3733 132.427 95.4569 131.975 95.4508 131.521C95.3203 121.738 94.9505 113.788 94.1922 110.1Z" fill="#3F3D56"/>
<path d="M104.302 12.5276C101.236 12.5276 98.2963 13.7522 96.1286 15.9321C93.9609 18.112 92.7432 21.0686 92.7432 24.1514C92.7432 27.2343 93.9609 30.1908 96.1286 32.3707C98.2963 34.5506 101.236 35.7753 104.302 35.7753H190.441C193.507 35.7753 196.447 34.5506 198.615 32.3707C200.782 30.1908 202 27.2343 202 24.1514C202 21.0686 200.782 18.112 198.615 15.9321C196.447 13.7522 193.507 12.5276 190.441 12.5276H104.302Z" fill="#E5E5E5"/>
<path d="M104.302 14.8799C101.857 14.8799 99.5118 15.8567 97.7828 17.5954C96.0538 19.3341 95.0825 21.6924 95.0825 24.1513C95.0825 26.6102 96.0538 28.9684 97.7828 30.7071C99.5118 32.4459 101.857 33.4227 104.302 33.4227H190.441C192.887 33.4227 195.232 32.4459 196.961 30.7071C198.69 28.9684 199.661 26.6102 199.661 24.1513C199.661 21.6924 198.69 19.3341 196.961 17.5954C195.232 15.8567 192.887 14.8799 190.441 14.8799H104.302Z" fill="white"/>
<path d="M50.6093 67.7507C61.0312 67.7507 69.4798 59.2544 69.4798 48.7738C69.4798 38.2931 61.0312 29.7969 50.6093 29.7969C40.1874 29.7969 31.7388 38.2931 31.7388 48.7738C31.7388 59.2544 40.1874 67.7507 50.6093 67.7507Z" fill="#9E616A"/>
<path d="M45.7817 66.8215C45.7011 66.643 45.6207 66.4639 45.5405 66.2842C45.5714 66.2852 45.602 66.2896 45.6329 66.2905L45.7817 66.8215Z" fill="#2F2E41"/>
<path d="M31.2139 30.6598C32.1683 29.8941 33.2838 29.1897 34.504 29.2293C35.7242 29.2688 36.9617 30.3771 36.7089 31.5783C38.9502 27.5874 42.5178 24.518 46.7853 22.9087C51.0528 21.2995 55.7477 21.2533 60.0457 22.7783C63.0785 23.8543 66.0527 26.007 66.7494 29.1644C66.9282 29.9749 66.9666 30.8636 67.4698 31.5217C68.1043 32.3515 69.3183 32.5393 70.3179 32.2473C70.3279 32.2444 70.3379 32.2415 70.3478 32.2385C70.5167 32.1805 70.699 32.1748 70.8711 32.2221C71.0432 32.2694 71.1973 32.3676 71.3133 32.5039C71.4294 32.6403 71.502 32.8085 71.522 32.9868C71.5419 33.1651 71.5082 33.3454 71.4252 33.5042L70.567 35.1136C71.6488 35.3561 72.7728 35.3321 73.8433 35.0436C74.0211 34.9967 74.209 35.0062 74.3812 35.071C74.5534 35.1357 74.7015 35.2525 74.8051 35.4052C74.9087 35.5579 74.9628 35.7391 74.96 35.924C74.9571 36.1088 74.8975 36.2883 74.7892 36.4377C71.9597 40.3444 67.2323 42.8672 62.4082 42.8376C58.9796 42.8166 55.5156 41.6282 52.1787 42.4211C50.8878 42.7279 49.6815 43.3214 48.6485 44.1581C47.6154 44.9948 46.7817 46.0535 46.2085 47.2565C45.6354 48.4594 45.3373 49.7762 45.3362 51.1101C45.3351 52.4441 45.631 53.7613 46.2022 54.9653C45.1771 53.8377 43.1954 54.1046 42.1468 55.2102C41.0983 56.3158 40.8268 57.9659 40.9325 59.49C41.094 61.8211 42.0022 64.0176 42.9597 66.1554C34.9324 65.9013 27.3399 60.2385 24.7842 52.5795C22.2179 44.8884 24.9075 35.7189 31.2139 30.6598Z" fill="#2F2E41"/>
<path opacity="0.2" d="M18.5735 105.763L23.8662 134.722L27.042 135L18.5735 105.763Z" fill="black"/>
<path opacity="0.2" d="M76.874 103.579L71.5813 134.701L68.4055 135L76.874 103.579Z" fill="black"/>
<path d="M35.7282 20.9137C34.7134 21.3398 33.6545 20.8728 33.2104 19.8033C32.7595 18.7174 33.1806 17.6151 34.2117 17.1822C35.2429 16.7491 36.2829 17.2173 36.7411 18.3207C37.1924 19.4075 36.7758 20.4738 35.7282 20.9137ZM33.7843 15.0448L32.9774 15.3836C32.7758 15.4673 32.5503 15.4718 32.3456 15.3963C32.1409 15.3208 31.9718 15.1707 31.8718 14.9759L31.8319 14.8974C30.9637 13.3228 30.8643 11.4091 31.538 9.21239C32.1621 7.24187 32.4214 5.85602 31.9 4.60051C31.2973 3.1489 30.0102 2.69418 28.3689 3.35289C27.7323 3.6202 27.5298 3.61594 27.0288 4.1157C26.9198 4.22573 26.7899 4.31257 26.6469 4.37103C26.5038 4.4295 26.3505 4.45839 26.1961 4.45599C26.0468 4.45422 25.8995 4.42224 25.7628 4.36196C25.626 4.30168 25.5028 4.21433 25.4004 4.10512C25.2031 3.89466 25.0925 3.61674 25.0911 3.32749C25.0896 3.03824 25.1974 2.75921 25.3926 2.54675C26.2346 1.66035 27.2502 0.959087 28.3753 0.487225C31.9017 -0.993612 33.677 1.19263 34.4894 3.14911C35.284 5.06278 34.837 6.83834 34.1188 9.13786C33.5169 11.0486 33.552 12.4645 34.2357 13.8723C34.285 13.9787 34.3125 14.0941 34.3164 14.2114C34.3203 14.3288 34.3006 14.4458 34.2584 14.5553C34.2163 14.6648 34.1525 14.7646 34.0711 14.8487C33.9896 14.9329 33.892 14.9996 33.7843 15.0448Z" fill="#15AB8E"/>
<path d="M123.329 29.695H106.19C106.136 29.6954 106.082 29.6849 106.031 29.6642C105.981 29.6435 105.935 29.613 105.897 29.5744C105.858 29.5359 105.827 29.49 105.806 29.4394C105.785 29.3889 105.775 29.3346 105.775 29.2799C105.775 29.2251 105.785 29.1709 105.806 29.1204C105.827 29.0698 105.858 29.0239 105.897 28.9853C105.935 28.9468 105.981 28.9162 106.031 28.8955C106.082 28.8748 106.136 28.8644 106.19 28.8648H123.329C123.438 28.8655 123.542 28.9096 123.619 28.9873C123.696 29.0651 123.739 29.1703 123.739 29.2799C123.739 29.3895 123.696 29.4947 123.619 29.5724C123.542 29.6502 123.438 29.6943 123.329 29.695Z" fill="#15AB8E"/>
<path d="M145.07 29.8335H127.932C127.877 29.8338 127.823 29.8234 127.773 29.8027C127.722 29.782 127.677 29.7515 127.638 29.7129C127.599 29.6743 127.569 29.6284 127.548 29.5778C127.527 29.5273 127.516 29.4731 127.516 29.4183C127.516 29.3636 127.527 29.3093 127.548 29.2588C127.569 29.2082 127.599 29.1624 127.638 29.1238C127.677 29.0852 127.722 29.0547 127.773 29.034C127.823 29.0133 127.877 29.0028 127.932 29.0032H145.07C145.125 29.0028 145.179 29.0133 145.229 29.034C145.28 29.0547 145.325 29.0852 145.364 29.1238C145.403 29.1624 145.433 29.2082 145.454 29.2588C145.475 29.3093 145.486 29.3636 145.486 29.4183C145.486 29.4731 145.475 29.5273 145.454 29.5778C145.433 29.6284 145.403 29.6743 145.364 29.7129C145.325 29.7515 145.28 29.782 145.229 29.8027C145.179 29.8234 145.125 29.8338 145.07 29.8335Z" fill="#15AB8E"/>
<path d="M166.812 29.9719H149.673C149.564 29.9711 149.46 29.9271 149.383 29.8493C149.306 29.7715 149.263 29.6664 149.263 29.5567C149.263 29.4471 149.306 29.342 149.383 29.2642C149.46 29.1864 149.564 29.1424 149.673 29.1416H166.812C166.866 29.1412 166.92 29.1517 166.97 29.1724C167.021 29.1931 167.067 29.2236 167.105 29.2622C167.144 29.3008 167.175 29.3467 167.195 29.3972C167.216 29.4478 167.227 29.502 167.227 29.5567C167.227 29.6115 167.216 29.6657 167.195 29.7163C167.175 29.7668 167.144 29.8127 167.105 29.8513C167.067 29.8899 167.021 29.9204 166.97 29.9411C166.92 29.9618 166.866 29.9723 166.812 29.9719Z" fill="#15AB8E"/>
<path d="M188.553 30.1103H171.414C171.305 30.1096 171.201 30.0655 171.124 29.9877C171.047 29.9099 171.004 29.8048 171.004 29.6952C171.004 29.5855 171.047 29.4804 171.124 29.4026C171.201 29.3248 171.305 29.2808 171.414 29.28H188.553C188.662 29.2808 188.766 29.3248 188.843 29.4026C188.92 29.4804 188.963 29.5855 188.963 29.6952C188.963 29.8048 188.92 29.9099 188.843 29.9877C188.766 30.0655 188.662 30.1096 188.553 30.1103Z" fill="#15AB8E"/>
<path d="M114.722 25.8746C116.481 25.8746 117.907 24.4404 117.907 22.6713C117.907 20.9022 116.481 19.468 114.722 19.468C112.963 19.468 111.537 20.9022 111.537 22.6713C111.537 24.4404 112.963 25.8746 114.722 25.8746Z" fill="#15AB8E"/>
<path d="M136.595 25.8746C138.354 25.8746 139.78 24.4404 139.78 22.6713C139.78 20.9022 138.354 19.468 136.595 19.468C134.835 19.468 133.409 20.9022 133.409 22.6713C133.409 24.4404 134.835 25.8746 136.595 25.8746Z" fill="#15AB8E"/>
<path d="M158.467 25.8746C160.226 25.8746 161.652 24.4404 161.652 22.6713C161.652 20.9022 160.226 19.468 158.467 19.468C156.708 19.468 155.282 20.9022 155.282 22.6713C155.282 24.4404 156.708 25.8746 158.467 25.8746Z" fill="#15AB8E"/>
<path d="M180.34 25.8746C182.099 25.8746 183.525 24.4404 183.525 22.6713C183.525 20.9022 182.099 19.468 180.34 19.468C178.58 19.468 177.154 20.9022 177.154 22.6713C177.154 24.4404 178.58 25.8746 180.34 25.8746Z" fill="#15AB8E"/>
</g>
<defs>
<clipPath id="clip0_1241_3821">
<rect width="202" height="135" fill="white"/>
</clipPath>
</defs>
</svg>
