<svg width="163" height="147" viewBox="0 0 163 147" fill="none" xmlns="http://www.w3.org/2000/svg">
<g clip-path="url(#clip0_1238_3458)">
<path d="M161.57 56.2158C161.512 56.2158 161.455 56.1978 161.407 56.1643L82.3207 0.830872C82.08 0.663266 81.794 0.573694 81.5012 0.574196C81.2083 0.574698 80.9227 0.665248 80.6825 0.833678L2.16608 56.1637C2.10398 56.2075 2.02712 56.2247 1.9524 56.2115C1.87769 56.1983 1.81124 56.1559 1.76768 56.0935C1.72412 56.0311 1.70701 55.9539 1.72013 55.8788C1.73324 55.8037 1.7755 55.737 1.8376 55.6932L80.3541 0.363181C80.6903 0.127415 81.0903 0.000679624 81.5003 2.7257e-06C81.9102 -0.000674172 82.3106 0.124739 82.6476 0.359394L161.734 55.6927C161.784 55.7276 161.821 55.7777 161.841 55.8356C161.861 55.8935 161.861 55.9562 161.843 56.0146C161.825 56.0729 161.788 56.1239 161.739 56.1601C161.69 56.1963 161.631 56.2158 161.57 56.2158Z" fill="#3F3D56"/>
<path d="M6.65259 58.1771L81.5788 2.38989L157.074 62.1466L85.4393 104.809L46.5481 95.9034L6.65259 58.1771Z" fill="#E6E6E6"/>
<path d="M49.8309 131.161H12.8155C12.5883 131.161 12.3631 131.116 12.1531 131.029C11.943 130.942 11.7521 130.814 11.5913 130.652C11.4305 130.491 11.3029 130.299 11.2158 130.089C11.1288 129.878 11.084 129.651 11.084 129.423C11.084 129.195 11.1288 128.969 11.2158 128.758C11.3029 128.547 11.4305 128.355 11.5913 128.194C11.7521 128.033 11.943 127.905 12.1531 127.817C12.3631 127.73 12.5883 127.685 12.8155 127.686H49.8309C50.0582 127.685 50.2833 127.73 50.4934 127.817C50.7035 127.905 50.8944 128.033 51.0552 128.194C51.216 128.355 51.3436 128.547 51.4306 128.758C51.5177 128.969 51.5625 129.195 51.5625 129.423C51.5625 129.651 51.5177 129.878 51.4306 130.089C51.3436 130.299 51.216 130.491 51.0552 130.652C50.8944 130.814 50.7035 130.942 50.4934 131.029C50.2833 131.116 50.0582 131.161 49.8309 131.161Z" fill="#15AB8E"/>
<path d="M26.0958 123.691H12.8155C12.5883 123.691 12.3631 123.647 12.1531 123.559C11.943 123.472 11.7521 123.344 11.5913 123.183C11.4305 123.022 11.3029 122.83 11.2158 122.619C11.1288 122.408 11.084 122.182 11.084 121.954C11.084 121.725 11.1288 121.499 11.2158 121.288C11.3029 121.077 11.4305 120.886 11.5913 120.724C11.7521 120.563 11.943 120.435 12.1531 120.348C12.3631 120.261 12.5883 120.216 12.8155 120.216H26.0958C26.3231 120.216 26.5482 120.261 26.7583 120.348C26.9684 120.435 27.1593 120.563 27.3201 120.724C27.4809 120.886 27.6085 121.077 27.6956 121.288C27.7826 121.499 27.8274 121.725 27.8274 121.954C27.8274 122.182 27.7826 122.408 27.6956 122.619C27.6085 122.83 27.4809 123.022 27.3201 123.183C27.1593 123.344 26.9684 123.472 26.7583 123.559C26.5482 123.647 26.3231 123.691 26.0958 123.691Z" fill="#15AB8E"/>
<path d="M82.6326 89.25C82.3512 89.2503 82.0725 89.1954 81.8121 89.0885L35.6028 69.8259V9.53082C35.6034 8.99765 35.8145 8.48649 36.1898 8.10948C36.565 7.73247 37.0738 7.5204 37.6045 7.51978H126.254C126.784 7.5204 127.293 7.73247 127.668 8.10948C128.044 8.48649 128.255 8.99765 128.255 9.53082V69.868L128.169 69.9053L83.4779 89.0791C83.2103 89.1921 82.9229 89.2502 82.6326 89.25Z" fill="white"/>
<path d="M82.6325 89.3935C82.3325 89.3939 82.0353 89.3355 81.7575 89.2216L35.4597 69.9219V9.53091C35.4604 8.95965 35.6865 8.41197 36.0886 8.00803C36.4907 7.60409 37.0358 7.37687 37.6045 7.37622H126.254C126.822 7.37687 127.367 7.60409 127.769 8.00803C128.172 8.41197 128.398 8.95965 128.398 9.53091V69.9629L83.5339 89.2112C83.2486 89.3318 82.9421 89.3938 82.6325 89.3935ZM36.0316 69.5382L81.9756 88.6903C82.4042 88.865 82.8841 88.8621 83.3105 88.6823L127.826 69.5836V9.53091C127.826 9.11199 127.66 8.71037 127.365 8.41416C127.07 8.11794 126.671 7.9513 126.254 7.9508H37.6045C37.1875 7.9513 36.7877 8.11794 36.4929 8.41416C36.198 8.71037 36.0321 9.11199 36.0317 9.53091L36.0316 69.5382Z" fill="#3F3D56"/>
<path d="M160.998 55.6411H160.941L128.112 69.7242L83.1958 88.9928C83.0203 89.067 82.832 89.1057 82.6416 89.1067C82.4512 89.1077 82.2624 89.0709 82.0862 88.9986L35.7456 69.6839L2.11039 55.6641L2.059 55.6411H2.00175C1.47104 55.6417 0.962223 55.8538 0.586949 56.2308C0.211675 56.6078 0.000588873 57.119 0 57.6522V144.989C0.000589629 145.522 0.211675 146.033 0.586949 146.41C0.962223 146.787 1.47104 146.999 2.00175 147H160.998C161.529 146.999 162.038 146.787 162.413 146.41C162.788 146.033 162.999 145.522 163 144.989V57.6522C162.999 57.119 162.788 56.6078 162.413 56.2308C162.038 55.8538 161.529 55.6417 160.998 55.6411ZM162.428 144.989C162.428 145.37 162.277 145.735 162.009 146.004C161.741 146.274 161.377 146.425 160.998 146.425H2.00175C1.62259 146.425 1.259 146.274 0.990885 146.004C0.722774 145.735 0.572081 145.37 0.57193 144.989V57.6522C0.572448 57.2807 0.715873 56.9238 0.972218 56.6561C1.22856 56.3884 1.57798 56.2306 1.94744 56.2157L35.7456 70.3045L81.8661 89.5301C82.3654 89.7341 82.9248 89.731 83.4217 89.5214L128.112 70.3476L161.055 56.2157C161.424 56.2317 161.773 56.3899 162.028 56.6575C162.284 56.925 162.427 57.2813 162.428 57.6522V144.989Z" fill="#3F3D56"/>
<path d="M82.1707 72.1524C80.4648 72.1556 78.8041 71.6014 77.4391 70.5734L77.3545 70.5096L59.5358 56.8036C58.7105 56.1684 58.0179 55.3761 57.4975 54.472C56.977 53.5678 56.639 52.5695 56.5025 51.5342C56.3661 50.4988 56.434 49.4465 56.7024 48.4375C56.9707 47.4284 57.4343 46.4824 58.0666 45.6533C58.6989 44.8243 59.4875 44.1285 60.3875 43.6056C61.2874 43.0828 62.2811 42.7431 63.3117 42.606C64.3423 42.469 65.3897 42.5372 66.3941 42.8068C67.3984 43.0764 68.3401 43.5421 69.1654 44.1773L80.707 53.0684L107.982 17.3331C108.614 16.5043 109.403 15.8087 110.303 15.2862C111.203 14.7636 112.197 14.4243 113.228 14.2876C114.259 14.151 115.306 14.2196 116.31 14.4895C117.314 14.7595 118.256 15.2256 119.081 15.8612L118.911 16.0925L119.085 15.8645C120.75 17.1494 121.838 19.0451 122.113 21.1356C122.388 23.226 121.826 25.3406 120.551 27.0153L88.4689 69.0486C87.7269 70.0172 86.7728 70.801 85.6805 71.3393C84.5883 71.8776 83.3872 72.1558 82.1707 72.1524Z" fill="#15AB8E"/>
</g>
<defs>
<clipPath id="clip0_1238_3458">
<rect width="163" height="147" fill="white"/>
</clipPath>
</defs>
</svg>
