<svg width="237" height="136" viewBox="0 0 237 136" fill="none" xmlns="http://www.w3.org/2000/svg">
<g clip-path="url(#clip0_1241_3822)">
<path d="M4.13513 40.8217C3.60121 40.9889 3.03265 41.0124 2.48673 40.89C1.94081 40.7675 1.4368 40.5035 1.02548 40.1244C0.614166 39.7452 0.310064 39.2645 0.143808 38.7305C-0.0224475 38.1964 -0.0449842 37.6281 0.0784699 37.0826C1.93079 29.3796 8.97418 10.5418 34.6335 2.61868C45.7482 -0.813345 56.4072 -0.871935 66.3016 2.44325C74.4414 5.15927 79.845 9.4095 82.4298 11.4638C83.0866 11.9831 83.51 12.742 83.607 13.5734C83.704 14.4049 83.4666 15.2407 82.947 15.8972C82.9406 15.9053 82.9341 15.9134 82.9276 15.9215C82.394 16.58 81.623 17.0025 80.7807 17.0981C79.9384 17.1937 79.0922 16.9546 78.4246 16.4324C73.7416 12.7441 59.5303 1.53907 36.4977 8.65114C14.0078 15.5956 7.8987 31.8392 6.31414 38.485C6.19381 39.0339 5.92807 39.5405 5.54472 39.9516C5.16138 40.3627 4.67452 40.6632 4.13513 40.8217Z" fill="#15AB8E"/>
<path d="M74.0718 84.4518C73.8169 84.5341 73.5525 84.5838 73.2851 84.5996C53.2393 85.6788 40.4853 69.0321 39.9617 68.3381L39.8646 68.1779C39.545 67.6823 31.8279 55.9457 35.2252 46.6247C36.7857 42.3634 40.2368 39.3723 45.512 37.7434C50.4181 36.2285 54.4327 36.6766 57.8498 39.1156C60.6516 41.1029 62.4473 44.0664 64.1878 46.9281C67.8076 52.8701 70.0259 55.8933 76.9062 54.1491C79.9272 53.3827 81.3378 51.0217 81.9822 49.1826C83.7173 44.178 82.1796 37.3554 78.1113 32.1937C72.8553 25.4971 58.1463 14.3744 39.9981 19.9783C32.2482 22.3713 25.9058 27.0871 21.6584 33.5805C18.1397 38.9694 16.0942 45.6624 16.0493 51.904C15.9787 63.5257 25.5072 78.8152 25.5976 78.9537C25.817 79.3044 25.9651 79.695 26.0335 80.103C26.1019 80.511 26.0893 80.9285 25.9963 81.3316C25.9033 81.7347 25.7318 82.1155 25.4915 82.4524C25.2513 82.7892 24.947 83.0755 24.5961 83.2948C24.5863 83.3009 24.5766 83.3069 24.5668 83.3129C23.8478 83.7611 22.9813 83.9087 22.1544 83.7237C21.3275 83.5387 20.6066 83.0361 20.1473 82.3243C19.7172 81.6251 9.54279 65.3228 9.62476 51.8911C9.73887 37.3323 18.5896 19.9569 38.1272 13.9241C47.1579 11.1355 56.6482 11.6042 65.5791 15.2644C72.5013 18.1187 78.9077 22.8437 83.1433 28.2391C88.5532 35.1258 90.4591 44.1405 87.9964 51.1763C86.3545 55.8668 82.9554 59.1032 78.4381 60.2604C66.6648 63.254 62.0527 55.7168 58.689 50.2186C55.2349 44.582 53.3243 41.9392 47.3545 43.7826C44.0765 44.7948 42.0571 46.4167 41.2078 48.7469C40.052 51.9325 41.1474 56.0155 42.2697 58.8779C42.2814 58.9078 42.293 58.9377 42.3047 58.9675C43.7436 62.6057 45.9892 65.8704 48.8725 68.5159C53.4912 72.7794 62.0657 78.8576 72.9941 78.2715C73.8296 78.2196 74.6515 78.5016 75.2789 79.0555C75.9064 79.6093 76.2881 80.3896 76.34 81.2247C76.3406 81.2348 76.3412 81.2449 76.3417 81.255C76.3673 81.9631 76.1589 82.66 75.7486 83.2378C75.3383 83.8157 74.749 84.2423 74.0718 84.4518Z" fill="#15AB8E"/>
<path d="M49.7635 90.4366C49.3457 90.5658 48.9059 90.6091 48.4709 90.5636C48.0359 90.5182 47.6146 90.385 47.2325 90.1722C37.3456 84.5728 30.4048 77.0415 25.4068 66.4858L25.3867 66.4207C22.2368 59.3828 20.3406 48.6299 24.5233 39.5418C27.6112 32.8359 33.4074 28.1224 41.7217 25.5551C51.5556 22.5185 60.7121 24.7542 68.2272 31.9893C71.6449 35.3286 74.4243 39.2633 76.4286 43.6001C76.7481 44.3804 76.7475 45.255 76.4269 46.0349C76.1063 46.8147 75.4914 47.437 74.7154 47.7673C73.9393 48.0975 73.0644 48.1091 72.2798 47.7995C71.4953 47.4899 70.8642 46.8841 70.523 46.113C68.8259 42.4934 66.4827 39.2135 63.6083 36.4344C57.8157 30.9255 51.082 29.2967 43.5709 31.616C37.0801 33.6202 32.6106 37.1634 30.3226 42.1485C27.0231 49.3238 28.7219 58.2836 31.1869 63.7977C35.5939 73.1335 41.7068 79.7557 50.4086 84.6752C50.768 84.8778 51.0841 85.1492 51.3386 85.474C51.5931 85.7987 51.7811 86.1703 51.892 86.5677C52.0028 86.9651 52.0342 87.3803 51.9845 87.7899C51.9348 88.1994 51.8048 88.5951 51.6021 88.9544C51.5941 88.9686 51.5859 88.9828 51.5777 88.9969C51.1723 89.685 50.5258 90.198 49.7635 90.4366Z" fill="#15AB8E"/>
<path d="M50.8045 58.8806C53.0632 58.8806 54.8942 57.0504 54.8942 54.7926C54.8942 52.5349 53.0632 50.7046 50.8045 50.7046C48.5459 50.7046 46.7148 52.5349 46.7148 54.7926C46.7148 57.0504 48.5459 58.8806 50.8045 58.8806Z" fill="#E6E6E6"/>
<path d="M124.545 104.711C124.461 104.711 124.376 104.705 124.293 104.692C124.076 104.66 123.868 104.585 123.681 104.472C123.493 104.359 123.33 104.21 123.2 104.033L120.954 100.989C120.824 100.813 120.73 100.613 120.677 100.4C120.625 100.188 120.614 99.9672 120.647 99.7508C120.68 99.5345 120.755 99.3267 120.868 99.1394C120.981 98.952 121.13 98.7888 121.306 98.6589L140.512 84.4999C140.688 84.37 140.888 84.2761 141.101 84.2234C141.313 84.1708 141.534 84.1606 141.75 84.1932C141.967 84.2259 142.175 84.3009 142.362 84.4139C142.549 84.5269 142.713 84.6757 142.843 84.8518L145.089 87.8963C145.351 88.2519 145.462 88.6972 145.396 89.1341C145.33 89.571 145.093 89.9639 144.737 90.2262L125.531 104.385C125.246 104.597 124.9 104.711 124.545 104.711Z" fill="#15AB8E"/>
<path d="M138.185 93.3109L135.246 89.3269C135.003 88.9986 134.902 88.5877 134.963 88.1843C135.024 87.781 135.242 87.4185 135.571 87.1764L146.818 77.3261C147.146 77.084 147.557 76.9822 147.961 77.0431C148.364 77.1041 148.727 77.3227 148.969 77.651L154.345 84.07C154.587 84.3982 154.689 84.8092 154.628 85.2125C154.567 85.6158 154.348 85.9784 154.02 86.2205L140.337 93.6358C140.008 93.8779 139.597 93.9796 139.194 93.9187C138.79 93.8578 138.427 93.6392 138.185 93.3109Z" fill="#2F2E41"/>
<path d="M156.257 135.913H152.473C152.031 135.913 151.607 135.737 151.295 135.424C150.982 135.112 150.806 134.689 150.806 134.247V102.716C150.806 102.274 150.982 101.851 151.295 101.539C151.607 101.226 152.031 101.051 152.473 101.05H156.257C156.699 101.051 157.123 101.226 157.435 101.539C157.748 101.851 157.923 102.274 157.924 102.716V134.247C157.923 134.689 157.748 135.112 157.435 135.424C157.123 135.737 156.699 135.913 156.257 135.913Z" fill="#15AB8E"/>
<path d="M163.743 135.913H159.958C159.516 135.913 159.092 135.737 158.78 135.424C158.468 135.112 158.292 134.689 158.291 134.247V102.716C158.292 102.274 158.468 101.851 158.78 101.539C159.092 101.226 159.516 101.051 159.958 101.05H163.743C164.185 101.051 164.608 101.226 164.921 101.539C165.233 101.851 165.409 102.274 165.41 102.716V134.247C165.409 134.689 165.233 135.112 164.921 135.424C164.608 135.737 164.185 135.913 163.743 135.913Z" fill="#15AB8E"/>
<path d="M199.229 135.426H116.14V136H199.229V135.426Z" fill="#3F3D56"/>
<path d="M156.473 63.8902C164.053 63.8902 170.197 57.7484 170.197 50.1723C170.197 42.5961 164.053 36.4543 156.473 36.4543C148.894 36.4543 142.75 42.5961 142.75 50.1723C142.75 57.7484 148.894 63.8902 156.473 63.8902Z" fill="#15AB8E"/>
<path d="M177.719 119.745L169.772 84.4643V76.1285C169.772 75.5846 169.556 75.0631 169.171 74.6785C168.786 74.294 168.264 74.0779 167.72 74.0779H160.107V68.7175C160.107 68.4483 160.054 68.1816 159.951 67.9328C159.848 67.684 159.697 67.458 159.506 67.2676C159.316 67.0772 159.09 66.9261 158.841 66.8231C158.592 66.72 158.325 66.667 158.056 66.667H153.953C153.683 66.667 153.417 66.72 153.168 66.8231C152.919 66.9261 152.693 67.0772 152.502 67.2676C152.312 67.458 152.161 67.684 152.058 67.9328C151.955 68.1816 151.902 68.4483 151.902 68.7175V74.0779H144.288C143.744 74.0779 143.222 74.294 142.838 74.6785C142.453 75.0631 142.237 75.5846 142.237 76.1285V119.981C142.237 120.244 142.288 120.504 142.387 120.748C142.479 121.186 142.716 121.581 143.059 121.869C143.401 122.157 143.831 122.323 144.278 122.339L176.44 123.411C178.362 123.461 179.234 120.962 177.719 119.745Z" fill="#2F2E41"/>
<path d="M156.605 55.0459C155.757 55.0221 154.702 54.9926 153.89 54.3991C153.648 54.2152 153.449 53.9807 153.307 53.7119C153.166 53.4431 153.084 53.1466 153.069 52.8432C153.054 52.6274 153.09 52.4111 153.173 52.2112C153.255 52.0113 153.383 51.8333 153.546 51.691C153.971 51.3326 154.591 51.2487 155.259 51.4447L154.566 46.3884L155.075 46.3188L155.888 52.263L155.464 52.0685C154.972 51.8427 154.297 51.7281 153.877 52.0825C153.774 52.1752 153.694 52.2904 153.643 52.4191C153.591 52.5479 153.571 52.6868 153.582 52.8249C153.594 53.0508 153.655 53.2713 153.761 53.4715C153.866 53.6717 154.013 53.8469 154.192 53.9851C154.825 54.4469 155.666 54.5067 156.62 54.5333L156.605 55.0459Z" fill="#2F2E41"/>
<path d="M152.054 46.8247H149.292V47.3373H152.054V46.8247Z" fill="#2F2E41"/>
<path d="M160.772 46.8247H158.01V47.3373H160.772V46.8247Z" fill="#2F2E41"/>
<path d="M144.455 41.3054C142.018 39.8287 140.87 37.0273 140.868 34.2566C140.866 32.7799 141.187 31.3206 141.808 29.9804C142.428 28.6402 143.333 27.4513 144.461 26.4966C146.971 24.3259 150.315 23.2637 153.582 22.9938C157.534 22.6672 161.46 23.5259 165.235 24.6219C169.276 25.7955 173.237 27.2721 177.374 28.0937C181.388 28.891 185.414 28.9696 189.366 27.8166C193.014 26.7525 196.717 24.8722 200.614 25.198C203.979 25.4795 206.535 27.7182 208.254 30.4841C211.668 35.9753 211.937 43.3457 216.846 47.9184C218.969 49.8955 221.734 50.7911 224.497 51.4605C227.147 52.1024 229.974 52.5137 232.405 53.8128C235.013 55.2058 236.591 57.8241 236.183 60.8242C235.72 64.2316 233.294 67.1643 230.624 69.166C227.812 71.2466 224.572 72.6743 221.139 73.345C217.706 74.0157 214.166 73.9125 210.778 73.043C203.693 71.164 197.934 65.6749 190.385 65.3309C186.174 65.139 182.028 66.2858 177.817 66.0957C174.899 65.9639 171.758 64.8854 169.725 62.7161C168.749 61.701 168.14 60.39 167.992 58.9899C167.946 58.5015 167.177 58.4967 167.223 58.9899C167.512 62.0547 169.768 64.3185 172.462 65.563C173.879 66.2133 175.393 66.6298 176.944 66.7965C179.005 67.024 181.105 66.8087 183.157 66.584C185.325 66.3463 187.496 66.0537 189.682 66.0799C191.677 66.1115 193.654 66.463 195.538 67.1209C199.155 68.361 202.413 70.4184 205.869 72.0207C209.213 73.5716 212.715 74.5331 216.42 74.557C219.99 74.5747 223.522 73.8177 226.771 72.338C229.97 70.881 232.977 68.7061 234.969 65.7742C236.837 63.0254 237.817 59.4193 236.137 56.342C234.819 53.93 232.307 52.7095 229.773 51.9581C226.965 51.1251 224.03 50.7446 221.281 49.7072C219.844 49.1911 218.522 48.3987 217.39 47.3747C216.176 46.1966 215.175 44.8167 214.433 43.2964C212.86 40.2275 212.055 36.8569 210.73 33.687C209.502 30.7506 207.822 27.7911 205.116 25.9815C203.662 25.0198 201.972 24.4745 200.229 24.4047C198.301 24.3175 196.386 24.7599 194.554 25.3173C192.615 25.9072 190.723 26.644 188.769 27.1869C186.712 27.7596 184.578 28.0142 182.444 27.942C178.053 27.799 173.812 26.4954 169.656 25.1809C162.374 22.8783 154.276 20.4132 146.956 23.9626C144.104 25.3456 141.687 27.666 140.669 30.7128C139.767 33.4088 139.892 36.5536 141.282 39.0653C141.94 40.26 142.901 41.2613 144.067 41.9694C144.492 42.2266 144.879 41.5619 144.455 41.3054Z" fill="#2F2E41"/>
<path d="M165.671 109.856H161.887C161.445 109.856 161.021 109.68 160.709 109.368C160.396 109.055 160.22 108.632 160.22 108.19V86.3379C160.22 85.8962 160.396 85.4728 160.709 85.1604C161.021 84.8481 161.445 84.6724 161.887 84.6719H165.671C166.113 84.6724 166.537 84.8481 166.849 85.1604C167.162 85.4728 167.338 85.8962 167.338 86.3379V108.19C167.338 108.632 167.162 109.055 166.849 109.368C166.537 109.68 166.113 109.856 165.671 109.856Z" fill="#15AB8E"/>
<path d="M151.063 37.9113C151.147 38.5138 151.398 39.0806 151.788 39.5481C152.177 40.0155 152.689 40.3648 153.267 40.5567C153.844 40.7486 154.464 40.7754 155.056 40.6341C155.648 40.4928 156.188 40.189 156.617 39.757L155.974 39.5874C156.332 40.5044 156.933 41.3069 157.713 41.909C158.492 42.5112 159.421 42.8904 160.399 43.0061C161.377 43.1218 162.368 42.9697 163.267 42.5661C164.165 42.1624 164.937 41.5224 165.5 40.7143C165.79 40.312 165.123 39.9277 164.836 40.3262C164.351 41.0052 163.692 41.5417 162.929 41.88C162.166 42.2183 161.326 42.3459 160.497 42.2496C159.668 42.1533 158.88 41.8366 158.215 41.3324C157.55 40.8282 157.032 40.1551 156.715 39.383C156.696 39.3192 156.661 39.2614 156.613 39.2151C156.565 39.1688 156.506 39.1356 156.441 39.1185C156.377 39.1015 156.309 39.1013 156.245 39.1179C156.18 39.1345 156.121 39.1673 156.073 39.2133C155.739 39.5504 155.316 39.7857 154.854 39.8918C154.391 39.9979 153.908 39.9704 153.461 39.8125C153.013 39.6546 152.62 39.3728 152.327 39C152.034 38.6272 151.853 38.1788 151.805 37.7069C151.736 37.219 150.995 37.4266 151.063 37.9113Z" fill="#2F2E41"/>
<path d="M126.814 92.5033L126.734 92.5576L125.245 90.3618C125.132 90.1949 124.987 90.0519 124.818 89.941C124.65 89.8302 124.461 89.7535 124.263 89.7155C124.065 89.6775 123.861 89.6789 123.664 89.7195C123.466 89.7602 123.279 89.8394 123.112 89.9525L118.458 93.1063C118.291 93.2195 118.148 93.3644 118.037 93.5328C117.926 93.7012 117.849 93.8897 117.811 94.0877C117.773 94.2858 117.774 94.4893 117.815 94.6868C117.856 94.8843 117.935 95.0718 118.048 95.2387L126.218 107.285C126.331 107.452 126.476 107.595 126.645 107.706C126.813 107.817 127.002 107.893 127.2 107.931C127.398 107.969 127.602 107.968 127.799 107.927C127.997 107.887 128.184 107.808 128.351 107.694L133.005 104.541C133.172 104.427 133.315 104.283 133.426 104.114C133.537 103.946 133.614 103.757 133.652 103.559C133.69 103.361 133.689 103.158 133.648 102.96C133.607 102.763 133.528 102.575 133.415 102.408L127.794 94.1206L127.874 94.0663L126.814 92.5033Z" fill="#3F3D56"/>
<path d="M123.464 90.5226L122.876 90.9211C122.948 90.969 123.007 91.0339 123.048 91.1101C123.089 91.1862 123.11 91.2713 123.111 91.3578C123.111 91.4443 123.09 91.5295 123.05 91.606C123.009 91.6824 122.951 91.7478 122.879 91.7964L120.299 93.5451C120.227 93.5937 120.144 93.6238 120.058 93.633C119.972 93.6422 119.885 93.63 119.805 93.5977C119.725 93.5654 119.654 93.5138 119.598 93.4475C119.543 93.3813 119.504 93.3024 119.486 93.2178L118.937 93.59C118.817 93.6718 118.713 93.7766 118.633 93.8983C118.553 94.02 118.497 94.1563 118.47 94.2995C118.442 94.4426 118.443 94.5897 118.473 94.7325C118.502 94.8752 118.559 95.0108 118.641 95.1314L126.537 106.774C126.619 106.895 126.724 106.998 126.846 107.078C126.967 107.158 127.104 107.214 127.247 107.241C127.39 107.269 127.537 107.268 127.68 107.238C127.823 107.209 127.959 107.152 128.079 107.07L132.606 104.003C132.849 103.837 133.017 103.582 133.073 103.293C133.128 103.004 133.067 102.705 132.902 102.461L125.005 90.8186C124.924 90.698 124.819 90.5946 124.697 90.5145C124.575 90.4343 124.439 90.3789 124.296 90.3514C124.153 90.324 124.005 90.325 123.863 90.3543C123.72 90.3837 123.584 90.4408 123.464 90.5226Z" fill="white"/>
</g>
<defs>
<clipPath id="clip0_1241_3822">
<rect width="237" height="136" fill="white"/>
</clipPath>
</defs>
</svg>
