<svg width="185" height="156" viewBox="0 0 185 156" fill="none" xmlns="http://www.w3.org/2000/svg">
<path d="M164.683 16.8177C160.981 16.8177 157.969 13.806 157.969 10.104C157.969 6.40221 160.981 3.39062 164.683 3.39062C168.385 3.39062 171.397 6.40227 171.397 10.104C171.397 13.806 168.385 16.8177 164.683 16.8177ZM164.683 4.54822C161.619 4.54822 159.127 7.04051 159.127 10.104C159.127 13.1677 161.62 15.6602 164.683 15.6602C167.747 15.6602 170.239 13.1677 170.239 10.104C170.239 7.04051 167.747 4.54822 164.683 4.54822Z" fill="#15AB8E"/>
<path d="M25.1884 21.4697C25.3292 23.1918 24.0475 24.7017 22.3257 24.8425C20.6036 24.9833 19.0938 23.7017 18.953 21.9797C18.8121 20.2577 20.0937 18.7478 21.8158 18.607C23.5375 18.4662 25.0476 19.7478 25.1884 21.4697Z" fill="#DC4ECE"/>
<path d="M5.73441 48.2522C4.43756 48.152 3.20855 47.6487 2.19774 46.7907C0.929599 45.7143 0.156562 44.2084 0.0209501 42.5503C-0.258897 39.128 2.29776 36.116 5.72017 35.8361C9.14258 35.5562 12.1544 38.1128 12.4343 41.5351C12.7142 44.9576 10.1577 47.9697 6.73538 48.2496C6.39892 48.2771 6.06444 48.2777 5.73441 48.2522ZM6.6213 36.9878C6.35673 36.9674 6.08724 36.9676 5.81446 36.9899C3.02819 37.2177 0.94679 39.6698 1.17466 42.4559C1.28504 43.8058 1.91442 45.0318 2.94676 45.9081C3.9791 46.7844 5.29111 47.2063 6.64092 47.0958C9.42706 46.8679 11.5084 44.4157 11.2805 41.6294C11.075 39.1161 9.05935 37.1762 6.6213 36.9878Z" fill="#15AB8E"/>
<path d="M101.057 0.405273H101.038H93.3724H93.3533C77.1658 0.405273 63.9966 12.5265 63.9966 27.4259H64.0157V48.1398H77.7207V27.4259C77.7207 19.4821 84.7418 13.0197 93.3724 13.0197H101.038C109.669 13.0197 116.69 19.4821 116.69 27.4259V48.1398H130.395V27.4259H130.414C130.414 12.5265 117.245 0.405273 101.057 0.405273Z" fill="#15AB8E"/>
<path d="M130.395 48.5448H116.69C116.466 48.5448 116.285 48.3634 116.285 48.1397V27.4258C116.285 19.7056 109.445 13.4247 101.038 13.4247H93.3723C84.9653 13.4247 78.1258 19.7056 78.1258 27.4258V48.1397C78.1258 48.3634 77.9444 48.5448 77.7206 48.5448H64.0156C63.7919 48.5448 63.6105 48.3634 63.6105 48.1397V27.5493C63.598 27.5103 63.5913 27.4689 63.5913 27.4258C63.5913 12.3032 76.9424 0 93.3532 0H101.057C117.468 0 130.819 12.3032 130.819 27.4258C130.819 27.4689 130.812 27.5105 130.8 27.5494V48.1397C130.8 48.3635 130.618 48.5448 130.395 48.5448ZM117.095 47.7345H129.989V27.4258C129.989 27.383 129.996 27.3418 130.008 27.3031C129.936 12.6838 116.976 0.810253 101.057 0.810253H93.3532C77.434 0.810253 64.4746 12.684 64.4019 27.3033C64.4141 27.3419 64.4208 27.3831 64.4208 27.4258V47.7345H77.3155V27.4258C77.3155 19.2588 84.5185 12.6144 93.3723 12.6144H101.038C109.892 12.6144 117.095 19.2588 117.095 27.4258V47.7345Z" fill="#101111"/>
<path d="M148.411 118.698C148.411 123.857 143.9 128.039 138.336 128.039H56.0729C50.5089 128.039 45.9988 123.857 45.9988 118.698V54.8035C45.9988 49.6453 50.5089 45.4634 56.0729 45.4634H138.336C143.9 45.4634 148.411 49.6453 148.411 54.8035L148.411 118.698Z" fill="#15AB8E"/>
<path d="M138.336 128.444H56.0731C50.2948 128.444 45.5938 124.072 45.5938 118.699V54.8036C45.5938 49.4301 50.2948 45.0583 56.0731 45.0583H138.336C144.115 45.0583 148.816 49.4301 148.816 54.8036V118.699C148.816 124.072 144.115 128.444 138.336 128.444ZM56.0731 45.8687C50.7416 45.8687 46.4041 49.8769 46.4041 54.8036V118.699C46.4041 123.625 50.7416 127.634 56.0731 127.634H138.336C143.668 127.634 148.006 123.625 148.006 118.699V54.8036C148.006 49.8769 143.668 45.8687 138.336 45.8687H56.0731Z" fill="#101111"/>
<path d="M90.7634 82.2207C90.7634 84.99 92.672 86.965 93.2683 87.5145C93.3914 87.6279 93.5115 87.745 93.6279 87.8663C93.8342 88.0813 94.0348 88.2694 94.1213 88.3254C94.2334 88.3975 94.2681 88.7803 94.1981 89.1751L92.7264 97.519C92.6567 97.9147 92.9047 98.2376 93.2775 98.2376H101.132C101.505 98.2376 101.753 97.9147 101.683 97.519L100.212 89.1751C100.142 88.7802 100.176 88.3975 100.289 88.3254C100.365 88.2763 100.528 88.1255 100.706 87.944C100.87 87.7774 101.039 87.6175 101.213 87.4631C101.877 86.8723 103.647 85.0334 103.647 82.2207C103.647 78.385 100.757 75.2646 97.2049 75.2646C93.6526 75.2646 90.7634 78.3849 90.7634 82.2207Z" fill="white"/>
<path d="M101.132 98.6429H93.2774C92.9846 98.6429 92.7228 98.5232 92.5404 98.3058C92.3492 98.0779 92.2715 97.7655 92.3272 97.4489L93.799 89.1049C93.8391 88.8784 93.8324 88.6914 93.8168 88.6038C93.6526 88.4725 93.4332 88.2489 93.3355 88.147C93.2279 88.0349 93.113 87.9224 92.9938 87.8127C92.3754 87.2429 90.3582 85.1559 90.3582 82.2208C90.3582 78.1618 93.4295 74.8596 97.2048 74.8596C100.98 74.8596 104.052 78.1618 104.052 82.2208C104.052 85.1616 102.255 87.0783 101.482 87.7659C101.309 87.92 101.145 88.0755 100.995 88.228C100.874 88.3516 100.717 88.5054 100.593 88.6041C100.577 88.6918 100.571 88.8786 100.611 89.1047L102.082 97.4488C102.138 97.766 102.06 98.0784 101.869 98.3061C101.686 98.5233 101.425 98.6429 101.132 98.6429ZM97.2048 75.6699C93.8763 75.6699 91.1684 78.6086 91.1684 82.2207C91.1684 84.8263 92.9857 86.7034 93.5427 87.2167C93.6741 87.3376 93.8011 87.4619 93.9201 87.5859C94.1572 87.833 94.3069 87.9622 94.3422 87.986C94.7404 88.2419 94.6378 89.0151 94.5969 89.246L93.1252 97.5895C93.1111 97.6696 93.1242 97.7408 93.1611 97.7848C93.188 97.8169 93.2261 97.8325 93.2774 97.8325H101.132C101.183 97.8325 101.221 97.8169 101.248 97.7849C101.285 97.7408 101.298 97.6695 101.284 97.589L99.8126 89.2456C99.7718 89.0146 99.6698 88.241 100.07 87.9844C100.102 87.9632 100.226 87.8544 100.417 87.6601C100.58 87.4948 100.757 87.3266 100.944 87.1604C101.634 86.5455 103.242 84.8334 103.242 82.2207C103.242 78.6086 100.533 75.6699 97.2048 75.6699ZM100.514 88.6621C100.513 88.6632 100.511 88.6643 100.509 88.6655C100.511 88.6644 100.513 88.6632 100.514 88.6621Z" fill="#101111"/>
<path d="M101.132 98.6689H93.2774C92.9812 98.6689 92.7053 98.5427 92.5206 98.3226C92.3244 98.0889 92.2447 97.7689 92.3018 97.4446L93.7736 89.1006C93.8117 88.8857 93.8068 88.7061 93.7929 88.6179C93.6281 88.4847 93.4134 88.2658 93.3168 88.1651C93.21 88.0538 93.0954 87.9417 92.9762 87.8319C92.3559 87.2604 90.3323 85.1668 90.3323 82.221C90.3323 78.1478 93.4153 74.834 97.2048 74.834C100.995 74.834 104.078 78.1478 104.078 82.221C104.078 85.1722 102.275 87.0955 101.499 87.7854C101.327 87.939 101.163 88.0941 101.014 88.2465C100.895 88.3678 100.741 88.5183 100.617 88.6183C100.603 88.7064 100.598 88.886 100.636 89.1006L102.108 97.4445C102.165 97.7694 102.085 98.0893 101.889 98.3229C101.701 98.5461 101.432 98.6689 101.132 98.6689Z" fill="white"/>
<path d="M101.132 99.074H93.2775C92.8612 99.074 92.4722 98.895 92.2103 98.583C91.937 98.2573 91.8249 97.8167 91.9028 97.3742L93.3747 89.0301C93.3897 88.9451 93.3959 88.8705 93.3976 88.8115C93.2554 88.6826 93.1108 88.5354 93.0246 88.4456C92.9237 88.3405 92.8151 88.2342 92.7017 88.1297C92.0509 87.53 89.9272 85.3316 89.9272 82.2209C89.9272 77.9243 93.192 74.4287 97.2049 74.4287C101.218 74.4287 104.483 77.9243 104.483 82.2209C104.483 85.3363 102.585 87.3617 101.769 88.0879C101.603 88.2358 101.446 88.3846 101.303 88.5302C101.195 88.64 101.098 88.7341 101.012 88.8118C101.014 88.8707 101.02 88.9454 101.035 89.0301L102.507 97.374C102.585 97.8174 102.472 98.258 102.199 98.5835C101.933 98.8998 101.554 99.074 101.132 99.074ZM97.2049 75.239C93.6388 75.239 90.7375 78.371 90.7375 82.2209C90.7375 85.002 92.6612 86.9905 93.2507 87.5337C93.3763 87.6495 93.4969 87.7675 93.6092 87.8845C93.6913 87.97 93.8984 88.1821 94.0477 88.3028C94.1257 88.3659 94.1775 88.4556 94.1931 88.5547C94.2193 88.7206 94.2116 88.9511 94.1725 89.1713L92.7008 97.5149C92.6646 97.7208 92.712 97.9203 92.8311 98.0621C92.9386 98.1902 93.1013 98.2637 93.2775 98.2637H101.132C101.313 98.2637 101.468 98.194 101.578 98.0622C101.697 97.9206 101.745 97.7209 101.709 97.5143L100.237 89.1709C100.198 88.9509 100.191 88.7208 100.217 88.5553C100.232 88.456 100.284 88.3661 100.362 88.3031C100.451 88.2316 100.576 88.1137 100.725 87.9624C100.88 87.8039 101.051 87.6425 101.23 87.4826C101.965 86.8291 103.673 85.0082 103.673 82.2209C103.673 78.3711 100.771 75.239 97.2049 75.239Z" fill="#101111"/>
<path d="M100.495 97.6909H96.089C95.8652 97.6909 95.6838 97.5095 95.6838 97.2858C95.6838 97.062 95.8652 96.8806 96.089 96.8806H100.495C100.719 96.8806 100.9 97.062 100.9 97.2858C100.9 97.5095 100.719 97.6909 100.495 97.6909Z" fill="#101111"/>
<path d="M97.8992 76.2747C94.585 76.2747 91.8887 79.2018 91.8887 82.7996L97.8992 76.2747Z" fill="white"/>
<path d="M91.8888 83.2047C91.665 83.2047 91.4836 83.0233 91.4836 82.7995C91.4836 78.9783 94.3617 75.8694 97.8993 75.8694C98.1231 75.8694 98.3045 76.0508 98.3045 76.2745C98.3045 76.4983 98.1231 76.6797 97.8993 76.6797C94.8085 76.6797 92.294 79.4251 92.294 82.7995C92.294 83.0233 92.1126 83.2047 91.8888 83.2047Z" fill="#101111"/>
<path d="M144.823 112.076C144.599 112.076 144.418 111.894 144.418 111.67V65.7181C144.418 65.4944 144.599 65.313 144.823 65.313C145.047 65.313 145.228 65.4944 145.228 65.7181V111.67C145.228 111.894 145.047 112.076 144.823 112.076Z" fill="#101111"/>
<path d="M48.8934 73.9332C48.6697 73.9332 48.4883 73.7518 48.4883 73.5281V57.4413C48.4883 52.0678 53.1893 47.696 58.9676 47.696H72.0778C72.3016 47.696 72.483 47.8774 72.483 48.1012C72.483 48.325 72.3016 48.5064 72.0778 48.5064H58.9676C53.6361 48.5064 49.2986 52.5146 49.2986 57.4413V73.5281C49.2986 73.7518 49.1172 73.9332 48.8934 73.9332Z" fill="#101111"/>
<path d="M93.8843 88.6855C93.8855 88.6864 93.8869 88.6872 93.8882 88.6881C93.8869 88.6872 93.8856 88.6864 93.8843 88.6855Z" fill="white"/>
<path d="M93.8879 89.0934C93.8119 89.0934 93.735 89.0721 93.6667 89.0275C93.6663 89.0272 93.6653 89.0265 93.6641 89.0258C93.6633 89.0251 93.6623 89.0246 93.6614 89.0239C93.6605 89.0234 93.6598 89.0228 93.6595 89.0227C93.6571 89.0212 93.6549 89.0196 93.6532 89.0184C93.4706 88.8917 93.4242 88.6415 93.5492 88.4577C93.6742 88.2739 93.924 88.225 94.1089 88.3484C94.1114 88.35 94.1145 88.3521 94.1163 88.3533C94.3 88.4784 94.3487 88.7282 94.2253 88.913C94.1473 89.03 94.0188 89.0934 93.8879 89.0934Z" fill="#101111"/>
<path d="M100.524 89.0927C100.392 89.0927 100.262 89.0283 100.185 88.9099C100.062 88.7237 100.113 88.4739 100.299 88.3504C100.3 88.3495 100.304 88.3469 100.305 88.3462C100.307 88.3447 100.311 88.3424 100.311 88.342C100.499 88.2227 100.747 88.2766 100.868 88.4627C100.99 88.6488 100.938 88.8978 100.754 89.0209C100.752 89.0218 100.749 89.0244 100.747 89.0251C100.746 89.0262 100.744 89.0272 100.743 89.0277C100.675 89.0716 100.599 89.0927 100.524 89.0927Z" fill="#101111"/>
<path d="M127.564 30.3801C127.552 30.3801 127.54 30.3796 127.528 30.3786C127.305 30.3592 127.141 30.1627 127.16 29.9398C127.45 26.6117 126.992 23.3151 125.799 20.1419C124.644 17.0681 122.86 14.259 120.496 11.7926C115.006 6.06449 107.098 2.99005 98.8036 3.35909C98.7976 3.35932 98.7917 3.35949 98.7856 3.35949H98.7665C98.5427 3.35949 98.3613 3.1781 98.3613 2.95434C98.3613 2.73057 98.5427 2.54918 98.7665 2.54918H98.7767C107.302 2.17273 115.431 5.33752 121.081 11.232C123.521 13.778 125.364 16.6799 126.558 19.8569C127.793 23.1444 128.267 26.5604 127.967 30.0101C127.949 30.221 127.772 30.3801 127.564 30.3801Z" fill="#101111"/>
<path d="M171.308 123.529L71.7928 145.906C62.6247 147.967 53.5212 142.206 51.4597 133.038C49.3981 123.87 55.1591 114.767 64.3273 112.705L163.842 90.3279C173.01 88.2663 182.114 94.0273 184.175 103.195C186.237 112.364 180.476 121.467 171.308 123.529Z" fill="#DC4ECE"/>
<path d="M68.0262 146.732C64.7662 146.732 61.5666 145.811 58.7447 144.025C54.8128 141.537 52.0852 137.667 51.0644 133.127C50.0436 128.587 50.8518 123.922 53.3399 119.99C55.8282 116.058 59.6986 113.33 64.2384 112.31L163.753 89.9326C168.293 88.9117 172.958 89.7199 176.89 92.2081C180.822 94.6963 183.55 98.5668 184.57 103.106C185.591 107.646 184.783 112.312 182.295 116.244C179.807 120.175 175.936 122.903 171.396 123.924L71.8817 146.301C70.6003 146.589 69.3084 146.732 68.0262 146.732ZM167.607 90.3126C166.384 90.3126 165.153 90.4483 163.931 90.7231L64.4162 113.1C60.0876 114.073 56.3972 116.674 54.0247 120.423C51.6522 124.172 50.8817 128.621 51.855 132.949C52.8283 137.278 55.429 140.968 59.1779 143.341C62.9269 145.713 67.3754 146.484 71.7039 145.51L171.219 123.133C175.547 122.16 179.238 119.559 181.61 115.81C183.983 112.061 184.753 107.613 183.78 103.284C182.806 98.9557 180.206 95.2653 176.457 92.8928C173.766 91.1902 170.715 90.3126 167.607 90.3126Z" fill="#101111"/>
<path d="M83.0105 131.026C82.5802 131.633 82.005 132.017 81.2859 132.179C80.7101 132.309 80.1626 132.186 79.6443 131.811C79.1253 131.437 78.8014 130.962 78.672 130.386C78.5587 129.883 78.6926 129.304 79.0755 128.651C79.4575 127.999 80.5137 127.232 82.243 126.352C80.3307 126.253 79.0554 126.001 78.4169 125.597C77.7779 125.193 77.4021 124.739 77.2888 124.235C77.1595 123.66 77.2487 123.092 77.5574 122.531C77.8655 121.971 78.3078 121.625 78.8836 121.496C79.6027 121.334 80.2852 121.427 80.9298 121.772C81.5746 122.119 82.3611 122.509 83.2902 122.942C83.0721 122.311 82.8514 121.747 82.6261 121.249C82.4011 120.752 82.244 120.306 82.1549 119.91C81.9931 119.191 82.0506 118.564 82.3271 118.029C82.6038 117.494 83.0834 117.15 83.7672 116.996C84.4864 116.835 85.0922 116.925 85.5855 117.268C86.078 117.61 86.4056 118.142 86.5673 118.861C86.6725 119.329 86.7113 119.84 86.6851 120.393C86.6583 120.947 86.6955 121.534 86.7976 122.154C87.471 121.285 88.0377 120.571 88.4988 120.014C88.9591 119.457 89.5133 119.105 90.1608 118.96C90.7358 118.83 91.2834 118.954 91.8023 119.327C92.3207 119.703 92.6454 120.178 92.7747 120.753C92.888 121.257 92.7335 121.83 92.3111 122.473C91.8889 123.116 90.8348 123.891 89.1497 124.799C91.0531 124.863 92.3357 125.103 92.9966 125.521C93.6575 125.939 94.0447 126.401 94.1579 126.904C94.2873 127.48 94.1973 128.048 93.8892 128.608C93.5804 129.169 93.1381 129.514 92.5631 129.643C91.9156 129.789 91.2624 129.7 90.6039 129.375C89.9447 129.051 89.1251 128.641 88.1443 128.143C88.3173 128.747 88.535 129.293 88.7963 129.782C89.057 130.271 89.2408 130.75 89.3458 131.217C89.5077 131.937 89.441 132.566 89.1466 133.104C88.8516 133.644 88.3447 133.993 87.6256 134.155C86.9418 134.308 86.3611 134.204 85.8822 133.838C85.4034 133.474 85.0832 132.932 84.9213 132.212C84.8243 131.78 84.7711 131.292 84.7616 130.746C84.7524 130.2 84.7102 129.595 84.6371 128.931C83.9829 129.721 83.4409 130.419 83.0105 131.026Z" fill="white"/>
<path d="M87.0419 134.628C86.5158 134.628 86.0449 134.472 85.6362 134.16C85.0821 133.738 84.7084 133.113 84.5258 132.301C84.4232 131.844 84.3662 131.324 84.3563 130.753C84.3521 130.505 84.3407 130.241 84.3222 129.962C83.946 130.436 83.6175 130.87 83.341 131.26C83.341 131.26 83.341 131.26 83.341 131.26C82.8529 131.949 82.1914 132.391 81.3747 132.574C80.6826 132.73 80.0206 132.584 79.4067 132.139C78.8084 131.708 78.428 131.148 78.2766 130.475C78.1404 129.869 78.2916 129.187 78.7259 128.446C79.0472 127.897 79.748 127.304 80.8548 126.649C79.6039 126.509 78.7295 126.275 78.1999 125.939C77.4705 125.478 77.0308 124.934 76.8934 124.324C76.7423 123.651 76.8462 122.982 77.2023 122.335C77.5677 121.671 78.1034 121.256 78.7945 121.1C79.6078 120.917 80.3905 121.023 81.1212 121.415C81.5402 121.64 82.0238 121.886 82.566 122.149C82.4629 121.888 82.3597 121.643 82.2569 121.416C82.0215 120.897 81.8541 120.42 81.7595 119.998C81.5771 119.187 81.6469 118.462 81.967 117.843C82.3003 117.199 82.876 116.781 83.6782 116.601C84.5089 116.414 85.2283 116.526 85.8164 116.935C86.3931 117.336 86.7785 117.954 86.9624 118.772C87.0747 119.271 87.1175 119.823 87.0896 120.412C87.0786 120.641 87.0792 120.876 87.0914 121.118C87.5122 120.583 87.8738 120.133 88.1864 119.755C88.7029 119.13 89.3372 118.73 90.0717 118.564C90.7618 118.409 91.4237 118.555 92.039 118.999C92.6387 119.433 93.0189 119.993 93.1698 120.664C93.3076 121.277 93.1326 121.96 92.6495 122.695C92.3001 123.227 91.5999 123.815 90.5228 124.479C91.7783 124.6 92.6644 124.831 93.2131 125.179C93.965 125.655 94.4158 126.205 94.5529 126.815C94.704 127.487 94.6 128.156 94.2439 128.803C93.8784 129.468 93.3428 129.883 92.6518 130.039C91.9135 130.204 91.1641 130.104 90.4244 129.739C89.9761 129.518 89.4577 129.26 88.8543 128.956C88.9464 129.178 89.0462 129.39 89.1533 129.591C89.4313 130.113 89.6287 130.63 89.7409 131.128C89.9241 131.943 89.8437 132.673 89.5018 133.298C89.1503 133.941 88.5488 134.362 87.7142 134.55C87.4812 134.602 87.2569 134.628 87.0419 134.628ZM84.6369 128.526C84.6756 128.526 84.7147 128.532 84.753 128.543C84.9089 128.59 85.0218 128.725 85.0395 128.887C85.1144 129.567 85.1572 130.19 85.1665 130.739C85.1754 131.255 85.2258 131.72 85.3163 132.123C85.4579 132.753 85.7232 133.208 86.1273 133.516C86.5093 133.807 86.9701 133.887 87.5365 133.759C88.1423 133.623 88.5527 133.345 88.7909 132.91C89.0389 132.456 89.0911 131.932 88.9503 131.306C88.8541 130.878 88.6819 130.429 88.4385 129.972C88.1646 129.46 87.9344 128.882 87.7546 128.254C87.7102 128.099 87.7619 127.933 87.8862 127.83C88.0104 127.728 88.1837 127.708 88.3274 127.781C89.3263 128.288 90.1294 128.691 90.7824 129.012C91.3603 129.297 91.9135 129.374 92.4741 129.248C92.9351 129.144 93.2819 128.871 93.534 128.413C93.7956 127.937 93.8703 127.473 93.7623 126.993C93.6741 126.6 93.3435 126.22 92.7797 125.863C92.3703 125.604 91.4058 125.28 89.1359 125.204C88.9529 125.198 88.7967 125.07 88.7549 124.891C88.7132 124.713 88.796 124.529 88.9573 124.442C90.9722 123.357 91.7089 122.651 91.9722 122.25C92.33 121.706 92.4669 121.232 92.3791 120.842C92.2714 120.362 92.0049 119.974 91.5645 119.656C91.1403 119.35 90.7099 119.251 90.2495 119.355C89.6865 119.482 89.216 119.781 88.8109 120.272C88.361 120.815 87.8071 121.512 87.1176 122.402C87.0188 122.529 86.8541 122.586 86.6979 122.546C86.5417 122.507 86.4238 122.378 86.3976 122.219C86.2916 121.576 86.2521 120.955 86.2803 120.374C86.3047 119.857 86.2683 119.378 86.1718 118.95C86.0319 118.327 85.7643 117.886 85.3539 117.6C84.9547 117.323 84.4646 117.255 83.856 117.391C83.2903 117.519 82.9078 117.788 82.6868 118.215C82.4534 118.667 82.4086 119.192 82.5501 119.821C82.6327 120.188 82.7824 120.613 82.9951 121.082C83.2219 121.583 83.45 122.164 83.6731 122.81C83.7262 122.964 83.6822 123.134 83.5614 123.243C83.4406 123.352 83.2663 123.378 83.1189 123.309C82.1896 122.876 81.3885 122.479 80.7378 122.129C80.1764 121.828 79.5988 121.75 78.9723 121.891C78.5111 121.995 78.1644 122.268 77.9123 122.726C77.6506 123.201 77.576 123.666 77.684 124.146C77.7724 124.539 78.0917 124.912 78.6332 125.254C79.0297 125.506 79.9809 125.829 82.2638 125.947C82.447 125.957 82.601 126.088 82.6392 126.268C82.6774 126.447 82.5902 126.63 82.4267 126.713C80.3694 127.76 79.6588 128.457 79.425 128.856C79.0979 129.414 78.9775 129.899 79.0671 130.297C79.1752 130.778 79.4414 131.166 79.881 131.483C80.3048 131.789 80.7349 131.888 81.1969 131.784C81.8208 131.643 82.306 131.319 82.6799 130.792C83.1121 130.182 83.6655 129.469 84.3247 128.673C84.403 128.578 84.5182 128.526 84.6369 128.526Z" fill="#101111"/>
<path d="M104.036 126.298C103.606 126.905 103.031 127.289 102.311 127.451C101.736 127.581 101.188 127.458 100.67 127.083C100.151 126.709 99.8271 126.234 99.6976 125.658C99.5844 125.155 99.7183 124.576 100.101 123.923C100.483 123.271 101.539 122.504 103.269 121.624C101.356 121.525 100.081 121.273 99.4426 120.869C98.8035 120.465 98.4278 120.011 98.3144 119.507C98.1851 118.932 98.2743 118.364 98.5831 117.803C98.8912 117.243 99.3334 116.897 99.9092 116.768C100.628 116.606 101.311 116.699 101.955 117.044C102.6 117.391 103.387 117.781 104.316 118.214C104.098 117.583 103.877 117.019 103.652 116.521C103.427 116.024 103.27 115.578 103.18 115.182C103.019 114.463 103.076 113.836 103.353 113.301C103.629 112.766 104.109 112.422 104.793 112.268C105.512 112.106 106.118 112.197 106.611 112.54C107.104 112.882 107.431 113.414 107.593 114.133C107.698 114.601 107.737 115.112 107.711 115.665C107.684 116.219 107.721 116.806 107.823 117.425C108.497 116.557 109.063 115.843 109.524 115.286C109.985 114.729 110.539 114.377 111.186 114.232C111.761 114.102 112.309 114.225 112.828 114.599C113.346 114.975 113.671 115.45 113.8 116.025C113.914 116.529 113.759 117.102 113.337 117.745C112.914 118.388 111.86 119.163 110.175 120.071C112.079 120.135 113.361 120.375 114.022 120.793C114.683 121.211 115.07 121.673 115.183 122.176C115.313 122.752 115.223 123.32 114.915 123.88C114.606 124.441 114.164 124.786 113.589 124.915C112.941 125.061 112.288 124.972 111.63 124.647C110.97 124.323 110.151 123.913 109.17 123.415C109.343 124.019 109.561 124.565 109.822 125.054C110.083 125.543 110.266 126.022 110.371 126.489C110.533 127.209 110.467 127.838 110.172 128.376C109.877 128.916 109.37 129.265 108.651 129.427C107.967 129.58 107.387 129.476 106.908 129.11C106.429 128.746 106.109 128.204 105.947 127.484C105.85 127.052 105.797 126.564 105.787 126.018C105.778 125.472 105.736 124.867 105.663 124.203C105.008 124.993 104.467 125.691 104.036 126.298Z" fill="white"/>
<path d="M108.068 129.901C107.542 129.901 107.071 129.744 106.662 129.432C106.108 129.011 105.734 128.385 105.552 127.573C105.449 127.117 105.392 126.596 105.382 126.025C105.378 125.777 105.367 125.513 105.348 125.234C104.972 125.708 104.643 126.143 104.367 126.533C103.879 127.221 103.217 127.663 102.401 127.846C101.708 128.002 101.046 127.856 100.433 127.412C99.8342 126.98 99.4538 126.42 99.3024 125.747C99.1662 125.142 99.3175 124.459 99.7517 123.719C100.073 123.169 100.774 122.577 101.881 121.921C100.63 121.781 99.7553 121.547 99.2258 121.211C98.4963 120.75 98.0566 120.207 97.9193 119.596C97.7681 118.924 97.872 118.255 98.2282 117.607C98.5936 116.943 99.1293 116.528 99.8204 116.372C100.634 116.19 101.416 116.295 102.147 116.687C102.566 116.912 103.05 117.158 103.592 117.421C103.489 117.16 103.386 116.915 103.283 116.688C103.047 116.169 102.88 115.692 102.785 115.271C102.603 114.46 102.673 113.734 102.993 113.115C103.326 112.471 103.902 112.053 104.704 111.873C105.535 111.686 106.254 111.798 106.842 112.207C107.419 112.608 107.804 113.226 107.988 114.044C108.101 114.543 108.143 115.095 108.115 115.684C108.104 115.913 108.105 116.149 108.117 116.39C108.538 115.856 108.899 115.406 109.212 115.027C109.729 114.402 110.363 114.002 111.097 113.837C111.788 113.681 112.449 113.827 113.065 114.271C113.664 114.705 114.045 115.265 114.196 115.936C114.333 116.549 114.158 117.232 113.675 117.967C113.326 118.499 112.626 119.087 111.549 119.751C112.804 119.872 113.69 120.104 114.239 120.451C114.991 120.927 115.442 121.477 115.579 122.087C115.73 122.759 115.626 123.428 115.27 124.076C114.904 124.74 114.368 125.155 113.677 125.311C112.939 125.477 112.19 125.376 111.45 125.011C111.001 124.79 110.483 124.532 109.88 124.228C109.972 124.451 110.072 124.663 110.179 124.863C110.457 125.385 110.655 125.902 110.767 126.4C110.95 127.215 110.869 127.946 110.528 128.571C110.176 129.213 109.575 129.635 108.74 129.822C108.507 129.874 108.283 129.901 108.068 129.901ZM105.663 123.798C105.702 123.798 105.741 123.804 105.779 123.815C105.935 123.862 106.048 123.997 106.065 124.159C106.14 124.839 106.183 125.462 106.192 126.011C106.201 126.527 106.252 126.992 106.342 127.395C106.484 128.025 106.749 128.48 107.153 128.788C107.535 129.079 107.996 129.159 108.562 129.032C109.168 128.895 109.579 128.617 109.817 128.182C110.065 127.728 110.117 127.204 109.976 126.578C109.88 126.15 109.708 125.702 109.464 125.244C109.19 124.732 108.96 124.154 108.781 123.526C108.736 123.371 108.788 123.205 108.912 123.102C109.036 123 109.21 122.981 109.353 123.053C110.351 123.56 111.154 123.962 111.808 124.284C112.386 124.569 112.939 124.646 113.5 124.52C113.961 124.416 114.308 124.143 114.56 123.685C114.822 123.209 114.896 122.745 114.788 122.265C114.7 121.872 114.369 121.492 113.806 121.135C113.396 120.876 112.432 120.552 110.162 120.476C109.979 120.47 109.823 120.342 109.781 120.164C109.739 119.985 109.822 119.801 109.983 119.714C111.998 118.629 112.735 117.923 112.998 117.522C113.356 116.978 113.493 116.504 113.405 116.114C113.297 115.634 113.031 115.246 112.59 114.928C112.166 114.622 111.736 114.524 111.275 114.627C110.712 114.754 110.242 115.054 109.837 115.544C109.386 116.088 108.832 116.785 108.143 117.674C108.045 117.801 107.88 117.858 107.724 117.818C107.568 117.779 107.45 117.65 107.423 117.491C107.317 116.849 107.278 116.228 107.306 115.646C107.331 115.129 107.294 114.65 107.198 114.222C107.058 113.599 106.79 113.158 106.38 112.872C105.981 112.595 105.49 112.527 104.882 112.664C104.316 112.791 103.934 113.06 103.713 113.487C103.479 113.939 103.435 114.464 103.576 115.093C103.658 115.46 103.808 115.885 104.021 116.354C104.248 116.855 104.476 117.436 104.699 118.082C104.752 118.236 104.708 118.406 104.587 118.515C104.466 118.624 104.292 118.65 104.145 118.581C103.215 118.148 102.414 117.751 101.764 117.401C101.202 117.1 100.624 117.022 99.9982 117.163C99.537 117.267 99.1902 117.54 98.9381 117.998C98.6765 118.473 98.6019 118.938 98.7099 119.418C98.7983 119.811 99.1177 120.184 99.6591 120.526C100.056 120.778 101.007 121.102 103.29 121.22C103.473 121.229 103.627 121.36 103.665 121.54C103.703 121.719 103.616 121.902 103.453 121.985C101.395 123.033 100.685 123.729 100.451 124.128C100.124 124.686 100.003 125.171 100.093 125.569C100.201 126.05 100.467 126.438 100.907 126.755C101.331 127.061 101.761 127.16 102.223 127.056C102.847 126.916 103.332 126.591 103.706 126.064C104.138 125.454 104.691 124.741 105.351 123.945C105.429 123.851 105.544 123.798 105.663 123.798Z" fill="#101111"/>
<path d="M125.062 121.57C124.632 122.177 124.057 122.562 123.337 122.723C122.762 122.853 122.214 122.73 121.696 122.355C121.177 121.982 120.853 121.506 120.723 120.93C120.61 120.427 120.744 119.849 121.127 119.196C121.509 118.543 122.565 117.777 124.295 116.896C122.382 116.797 121.107 116.546 120.468 116.141C119.829 115.737 119.454 115.283 119.34 114.779C119.211 114.204 119.3 113.636 119.609 113.075C119.917 112.515 120.359 112.169 120.935 112.04C121.654 111.878 122.337 111.971 122.981 112.316C123.626 112.663 124.413 113.053 125.342 113.486C125.124 112.855 124.903 112.291 124.678 111.793C124.453 111.297 124.296 110.85 124.206 110.454C124.045 109.735 124.102 109.108 124.379 108.573C124.655 108.039 125.135 107.694 125.819 107.54C126.538 107.379 127.144 107.469 127.637 107.812C128.129 108.155 128.457 108.686 128.619 109.405C128.724 109.873 128.763 110.384 128.737 110.937C128.71 111.492 128.747 112.079 128.849 112.698C129.523 111.829 130.089 111.115 130.55 110.558C131.011 110.001 131.565 109.65 132.212 109.504C132.787 109.375 133.335 109.498 133.854 109.872C134.372 110.247 134.697 110.722 134.826 111.297C134.939 111.801 134.785 112.374 134.363 113.017C133.94 113.66 132.886 114.436 131.201 115.343C133.105 115.407 134.387 115.647 135.048 116.065C135.709 116.484 136.096 116.945 136.209 117.448C136.339 118.024 136.249 118.593 135.941 119.152C135.632 119.713 135.19 120.058 134.615 120.188C133.967 120.333 133.314 120.244 132.655 119.92C131.996 119.596 131.177 119.185 130.196 118.687C130.369 119.291 130.586 119.837 130.848 120.326C131.108 120.816 131.292 121.294 131.397 121.761C131.559 122.481 131.492 123.11 131.198 123.648C130.903 124.188 130.396 124.537 129.677 124.699C128.993 124.853 128.413 124.748 127.934 124.382C127.455 124.018 127.135 123.476 126.973 122.756C126.876 122.325 126.823 121.836 126.813 121.29C126.804 120.745 126.762 120.14 126.689 119.476C126.034 120.266 125.492 120.963 125.062 121.57Z" fill="white"/>
<path d="M129.094 125.173C128.567 125.173 128.097 125.016 127.688 124.704C127.134 124.283 126.76 123.657 126.578 122.845C126.475 122.389 126.418 121.868 126.408 121.297C126.404 121.049 126.392 120.785 126.374 120.506C125.998 120.98 125.669 121.415 125.393 121.804C124.905 122.493 124.243 122.935 123.426 123.118C122.734 123.274 122.072 123.128 121.458 122.684C120.86 122.252 120.48 121.692 120.328 121.019C120.192 120.414 120.343 119.731 120.778 118.99C121.099 118.441 121.8 117.849 122.907 117.193C121.655 117.053 120.781 116.819 120.252 116.483C119.522 116.022 119.083 115.479 118.945 114.868C118.794 114.196 118.898 113.526 119.254 112.879C119.619 112.215 120.155 111.8 120.846 111.644C121.659 111.461 122.442 111.567 123.173 111.959C123.592 112.184 124.075 112.43 124.618 112.693C124.515 112.432 124.411 112.187 124.309 111.96C124.073 111.441 123.906 110.964 123.811 110.543C123.629 109.732 123.699 109.006 124.019 108.387C124.352 107.743 124.928 107.325 125.73 107.145C126.561 106.958 127.28 107.07 127.868 107.479C128.445 107.88 128.83 108.498 129.014 109.316C129.126 109.815 129.169 110.367 129.141 110.956C129.13 111.185 129.131 111.42 129.143 111.662C129.564 111.127 129.926 110.677 130.238 110.299C130.755 109.674 131.389 109.274 132.123 109.109C132.813 108.953 133.475 109.099 134.091 109.543C134.69 109.977 135.07 110.537 135.221 111.208C135.359 111.821 135.184 112.504 134.701 113.239C134.352 113.771 133.652 114.359 132.574 115.023C133.83 115.144 134.716 115.376 135.265 115.723C136.017 116.199 136.467 116.749 136.605 117.359C136.756 118.031 136.652 118.7 136.296 119.348C135.93 120.012 135.394 120.427 134.703 120.583C133.965 120.749 133.216 120.648 132.476 120.283C132.028 120.062 131.509 119.804 130.906 119.5C130.998 119.723 131.098 119.934 131.205 120.135C131.483 120.657 131.68 121.174 131.792 121.672C131.976 122.487 131.895 123.217 131.553 123.843C131.202 124.485 130.6 124.906 129.766 125.094C129.533 125.146 129.309 125.173 129.094 125.173ZM126.689 119.07C126.727 119.07 126.766 119.076 126.805 119.087C126.961 119.134 127.074 119.269 127.091 119.431C127.166 120.112 127.209 120.735 127.218 121.283C127.227 121.799 127.278 122.265 127.368 122.667C127.51 123.297 127.775 123.752 128.179 124.06C128.561 124.351 129.022 124.431 129.588 124.304C130.194 124.167 130.604 123.889 130.843 123.454C131.091 123 131.143 122.476 131.002 121.85C130.906 121.422 130.734 120.973 130.49 120.516C130.216 120.004 129.986 119.426 129.806 118.798C129.762 118.643 129.814 118.477 129.938 118.374C130.062 118.272 130.236 118.253 130.379 118.325C131.378 118.832 132.181 119.235 132.834 119.556C133.412 119.841 133.966 119.918 134.526 119.792C134.987 119.688 135.334 119.415 135.586 118.957C135.847 118.481 135.922 118.017 135.814 117.537C135.726 117.144 135.395 116.764 134.831 116.407C134.422 116.148 133.458 115.824 131.188 115.748C131.005 115.742 130.849 115.614 130.807 115.436C130.765 115.257 130.848 115.073 131.009 114.986C133.024 113.901 133.761 113.195 134.024 112.794C134.382 112.25 134.519 111.776 134.431 111.386C134.323 110.906 134.057 110.518 133.616 110.2C133.192 109.894 132.762 109.796 132.301 109.899C131.738 110.026 131.268 110.325 130.863 110.816C130.413 111.359 129.859 112.056 129.169 112.946C129.071 113.073 128.906 113.13 128.75 113.09C128.593 113.051 128.475 112.922 128.449 112.763C128.343 112.12 128.304 111.499 128.332 110.918C128.356 110.401 128.32 109.922 128.224 109.494C128.084 108.871 127.816 108.43 127.406 108.144C127.007 107.867 126.516 107.799 125.908 107.936C125.342 108.063 124.959 108.332 124.739 108.759C124.505 109.211 124.46 109.736 124.602 110.365C124.684 110.732 124.834 111.157 125.047 111.626C125.274 112.128 125.502 112.709 125.725 113.354C125.778 113.508 125.734 113.678 125.613 113.787C125.492 113.896 125.318 113.922 125.171 113.853C124.241 113.42 123.44 113.023 122.79 112.673C122.228 112.372 121.65 112.294 121.024 112.435C120.563 112.539 120.216 112.812 119.964 113.27C119.702 113.745 119.628 114.21 119.736 114.69C119.824 115.083 120.144 115.456 120.685 115.798C121.081 116.05 122.033 116.374 124.316 116.492C124.499 116.501 124.653 116.632 124.691 116.812C124.729 116.991 124.642 117.174 124.478 117.257C122.421 118.305 121.711 119.001 121.477 119.4C121.15 119.958 121.029 120.443 121.119 120.841C121.227 121.322 121.493 121.71 121.933 122.027C122.357 122.333 122.787 122.432 123.249 122.328C123.873 122.188 124.358 121.863 124.732 121.336C125.164 120.726 125.717 120.013 126.376 119.217C126.455 119.123 126.57 119.07 126.689 119.07Z" fill="#101111"/>
<path d="M146.088 116.842C145.658 117.449 145.083 117.834 144.363 117.995C143.788 118.125 143.24 118.003 142.722 117.628C142.203 117.254 141.879 116.778 141.75 116.202C141.636 115.699 141.77 115.121 142.153 114.468C142.535 113.815 143.591 113.049 145.321 112.168C143.408 112.069 142.133 111.818 141.495 111.413C140.856 111.009 140.48 110.555 140.366 110.051C140.237 109.476 140.326 108.908 140.635 108.347C140.943 107.787 141.385 107.441 141.961 107.312C142.68 107.15 143.363 107.243 144.007 107.588C144.652 107.935 145.439 108.325 146.368 108.758C146.15 108.127 145.929 107.563 145.704 107.065C145.479 106.569 145.322 106.122 145.232 105.726C145.071 105.007 145.128 104.38 145.405 103.845C145.681 103.31 146.161 102.966 146.845 102.812C147.564 102.651 148.17 102.741 148.663 103.084C149.156 103.426 149.483 103.958 149.645 104.677C149.75 105.145 149.789 105.656 149.763 106.209C149.736 106.764 149.773 107.35 149.875 107.97C150.549 107.101 151.115 106.387 151.576 105.83C152.037 105.273 152.591 104.922 153.238 104.776C153.813 104.647 154.361 104.77 154.88 105.144C155.398 105.519 155.723 105.994 155.852 106.569C155.966 107.073 155.811 107.646 155.389 108.289C154.966 108.932 153.912 109.707 152.227 110.615C154.131 110.679 155.413 110.919 156.074 111.337C156.735 111.756 157.122 112.217 157.235 112.72C157.365 113.296 157.275 113.864 156.967 114.424C156.658 114.985 156.216 115.33 155.641 115.46C154.993 115.605 154.34 115.516 153.682 115.192C153.022 114.868 152.203 114.457 151.222 113.959C151.395 114.563 151.613 115.109 151.874 115.598C152.135 116.088 152.318 116.566 152.423 117.033C152.585 117.753 152.519 118.382 152.224 118.92C151.929 119.46 151.422 119.809 150.703 119.971C150.019 120.125 149.439 120.02 148.96 119.654C148.481 119.29 148.161 118.748 147.999 118.028C147.902 117.597 147.849 117.108 147.839 116.562C147.83 116.017 147.788 115.411 147.715 114.748C147.06 115.538 146.519 116.235 146.088 116.842Z" fill="white"/>
<path d="M150.12 120.445C149.593 120.445 149.123 120.288 148.714 119.976C148.16 119.555 147.786 118.929 147.603 118.117C147.501 117.661 147.444 117.14 147.434 116.569C147.43 116.321 147.418 116.057 147.4 115.778C147.024 116.252 146.695 116.687 146.419 117.077C145.93 117.765 145.269 118.207 144.452 118.391C143.76 118.546 143.098 118.4 142.484 117.956C141.886 117.525 141.506 116.964 141.354 116.291C141.218 115.686 141.369 115.003 141.804 114.263C142.125 113.714 142.826 113.121 143.932 112.465C142.681 112.325 141.807 112.091 141.278 111.755C140.548 111.294 140.108 110.751 139.971 110.14C139.82 109.468 139.924 108.799 140.28 108.151C140.645 107.487 141.181 107.072 141.872 106.917C142.685 106.734 143.468 106.84 144.199 107.231C144.618 107.457 145.102 107.702 145.644 107.966C145.541 107.704 145.437 107.459 145.334 107.233C145.099 106.713 144.932 106.236 144.837 105.815C144.655 105.004 144.725 104.278 145.045 103.659C145.378 103.015 145.954 102.598 146.756 102.417C147.587 102.23 148.306 102.343 148.894 102.751C149.471 103.152 149.856 103.77 150.04 104.588C150.152 105.088 150.195 105.639 150.167 106.229C150.156 106.457 150.157 106.693 150.169 106.934C150.59 106.399 150.951 105.949 151.264 105.571C151.78 104.947 152.415 104.546 153.149 104.381C153.839 104.225 154.501 104.372 155.117 104.815C155.716 105.249 156.096 105.809 156.247 106.48C156.385 107.093 156.21 107.777 155.727 108.511C155.378 109.044 154.678 109.632 153.6 110.295C154.856 110.417 155.742 110.648 156.291 110.995C157.043 111.471 157.493 112.021 157.63 112.631C157.782 113.303 157.678 113.972 157.321 114.62C156.956 115.284 156.42 115.699 155.729 115.855C154.991 116.021 154.242 115.92 153.502 115.555C153.052 115.334 152.534 115.076 151.932 114.772C152.024 114.995 152.124 115.207 152.231 115.407C152.509 115.929 152.706 116.446 152.818 116.944C153.002 117.759 152.921 118.49 152.579 119.115C152.228 119.758 151.626 120.179 150.792 120.366C150.559 120.419 150.335 120.445 150.12 120.445ZM147.715 114.342C147.753 114.342 147.792 114.348 147.831 114.359C147.987 114.406 148.099 114.542 148.117 114.703C148.192 115.383 148.235 116.006 148.244 116.555C148.253 117.071 148.303 117.537 148.394 117.939C148.536 118.569 148.801 119.024 149.205 119.332C149.587 119.623 150.048 119.703 150.614 119.576C151.22 119.439 151.63 119.161 151.869 118.726C152.117 118.272 152.169 117.748 152.028 117.122C151.932 116.694 151.76 116.246 151.516 115.788C151.242 115.276 151.012 114.698 150.832 114.07C150.788 113.916 150.84 113.749 150.964 113.646C151.088 113.544 151.261 113.525 151.405 113.598C152.388 114.096 153.214 114.51 153.86 114.828C154.438 115.113 154.991 115.19 155.552 115.064C156.013 114.961 156.359 114.687 156.612 114.229C156.873 113.754 156.948 113.289 156.84 112.809C156.752 112.416 156.421 112.036 155.857 111.68C155.448 111.421 154.483 111.096 152.214 111.02C152.031 111.014 151.874 110.886 151.833 110.708C151.791 110.529 151.874 110.345 152.035 110.258C154.05 109.173 154.787 108.467 155.05 108.066C155.408 107.522 155.545 107.048 155.457 106.658C155.349 106.178 155.083 105.791 154.642 105.472C154.218 105.166 153.788 105.068 153.327 105.171C152.764 105.298 152.294 105.598 151.889 106.088C151.439 106.632 150.885 107.328 150.195 108.218C150.096 108.345 149.932 108.402 149.775 108.362C149.619 108.323 149.501 108.195 149.475 108.036C149.369 107.392 149.33 106.771 149.358 106.19C149.382 105.674 149.346 105.194 149.25 104.766C149.11 104.143 148.842 103.702 148.432 103.416C148.032 103.139 147.542 103.071 146.934 103.208C146.368 103.335 145.985 103.604 145.764 104.031C145.531 104.483 145.486 105.008 145.628 105.637C145.71 106.005 145.86 106.429 146.073 106.898C146.299 107.399 146.528 107.981 146.751 108.626C146.804 108.78 146.76 108.95 146.639 109.059C146.518 109.168 146.344 109.194 146.196 109.126C145.267 108.692 144.466 108.295 143.815 107.945C143.254 107.644 142.676 107.566 142.05 107.707C141.589 107.811 141.242 108.084 140.99 108.542C140.728 109.018 140.654 109.482 140.762 109.962C140.85 110.356 141.169 110.728 141.711 111.071C142.107 111.322 143.058 111.646 145.341 111.764C145.525 111.773 145.679 111.905 145.717 112.084C145.755 112.263 145.668 112.446 145.504 112.529C143.447 113.577 142.736 114.273 142.503 114.672C142.176 115.23 142.055 115.715 142.145 116.113C142.253 116.594 142.519 116.982 142.959 117.299C143.383 117.605 143.813 117.704 144.274 117.6C144.899 117.46 145.384 117.135 145.758 116.608C146.19 115.998 146.743 115.285 147.402 114.489C147.481 114.395 147.596 114.342 147.715 114.342Z" fill="#101111"/>
<path d="M108.43 135.261C108.244 135.261 108.077 135.132 108.035 134.944C107.986 134.725 108.124 134.509 108.342 134.46L167.932 121.176C173.605 119.919 177.731 117.258 179.867 113.48C181.797 110.066 182.017 105.877 180.504 101.367C180.433 101.155 180.547 100.926 180.759 100.854C180.971 100.783 181.201 100.897 181.272 101.11C182.861 105.843 182.619 110.259 180.572 113.879C178.321 117.862 174.011 120.659 168.108 121.967L108.519 135.251C108.489 135.258 108.459 135.261 108.43 135.261Z" fill="#101111"/>
<path d="M37.8358 70.5464C28.7466 78.6179 19.5092 83.9719 6.92432 88.14C7.01397 88.9643 7.5133 93.5559 9.80261 114.606C12.8565 142.687 42.3263 153.228 46.8987 154.841C50.8878 152.514 77.5993 135.606 74.5454 107.525C72.2561 86.4742 71.7568 81.8827 71.6671 81.0583C58.4822 79.7091 47.3819 76.0827 37.8358 70.5464Z" fill="#478CF3"/>
<path d="M46.8985 155.246C46.8531 155.246 46.8076 155.238 46.7638 155.223C37.8666 152.086 31.3964 147.917 27.5353 144.971C22.7653 141.333 18.8525 137.216 15.9056 132.736C12.297 127.249 10.1081 121.164 9.39972 114.65L6.52143 88.1838C6.50082 87.9939 6.61554 87.8154 6.79682 87.7554C19.1488 83.6644 28.351 78.4271 37.5667 70.2433C37.6974 70.1272 37.8878 70.1081 38.039 70.1958C42.8475 72.9845 48.0521 75.269 53.5084 76.9859C59.1548 78.7626 65.2782 79.9972 71.7083 80.6552C71.8984 80.6747 72.0491 80.8245 72.0698 81.0145L74.9481 107.481C78.0758 136.24 50.2822 153.336 47.1027 155.19C47.04 155.227 46.9695 155.246 46.8985 155.246ZM7.36236 88.4211L10.2053 114.562C10.8997 120.947 13.0453 126.912 16.5826 132.29C19.4791 136.694 23.3296 140.744 28.0268 144.327C31.8159 147.217 38.1494 151.301 46.8559 154.396C50.6625 152.142 77.1676 135.386 74.1424 107.568L71.2995 81.4274C64.934 80.7557 58.868 79.5218 53.2651 77.7588C47.8476 76.054 42.6751 73.7952 37.8859 71.0429C28.7326 79.1258 19.5729 84.3409 7.36236 88.4211Z" fill="#101111"/>
<path d="M59.6244 101.128L55.2916 97.6796C55.2726 97.6645 54.1876 99.0817 54.1724 99.1008L38.9815 118.186C38.9664 118.205 38.9387 118.208 38.9197 118.193L27.5294 109.126C27.5104 109.111 27.4827 109.114 27.4676 109.133L24.0186 113.466C24.0035 113.485 24.0066 113.512 24.0256 113.527L35.4509 122.621L35.4503 122.621C35.4352 122.64 35.4384 122.668 35.4573 122.683L39.7902 126.132C39.8092 126.147 39.8369 126.144 39.852 126.125L39.8859 126.153L43.3628 121.785C43.3778 121.766 43.3749 121.739 43.3565 121.723L43.3558 121.723L58.5741 102.605C58.5892 102.585 59.6434 101.144 59.6244 101.128Z" fill="white"/>
<path d="M39.8859 126.558C39.8533 126.558 39.8209 126.554 39.7895 126.546C39.6981 126.541 39.6108 126.507 39.5378 126.449L35.205 123C35.1509 122.957 35.1083 122.903 35.0794 122.843L23.7732 113.844C23.5795 113.69 23.5473 113.407 23.7014 113.213L27.1505 108.881C27.305 108.687 27.5881 108.655 27.7817 108.809L38.8893 117.651L53.8553 98.8485L53.898 98.7929C54.0028 98.6566 54.2642 98.3165 54.503 98.01C54.6235 97.8554 54.7382 97.7093 54.8247 97.6016C54.9969 97.3873 55.0681 97.2987 55.2416 97.2773C55.3496 97.2644 55.4586 97.2949 55.5435 97.3624L59.8766 100.812L59.8767 100.812C59.9455 100.866 60.1523 101.072 59.9233 101.419C59.8948 101.462 59.853 101.523 59.8022 101.595C59.7152 101.72 59.5935 101.89 59.4406 102.102C59.2084 102.424 58.9104 102.832 58.8911 102.857L43.7654 121.859C43.7509 121.922 43.7225 121.983 43.6795 122.037L40.2029 126.405C40.1356 126.49 40.0373 126.544 39.9299 126.556C39.9153 126.557 39.9005 126.558 39.8859 126.558ZM35.8205 122.455L39.7941 125.617L42.959 121.641C42.9713 121.581 42.9977 121.522 43.0388 121.47L58.2537 102.356C58.3297 102.255 58.8067 101.6 59.0803 101.213L55.3494 98.2435C55.1992 98.4338 54.9509 98.7527 54.5405 99.2866C54.5095 99.327 54.491 99.3509 54.489 99.3534L39.2984 118.438C39.2236 118.532 39.1169 118.591 38.9976 118.605C38.8783 118.618 38.761 118.584 38.6672 118.51L27.5595 109.668L24.5605 113.435L35.7032 122.304C35.7555 122.345 35.7948 122.397 35.8205 122.455ZM35.7703 122.87C35.7694 122.871 35.7684 122.872 35.7676 122.874C35.7684 122.872 35.7694 122.871 35.7703 122.87Z" fill="#101111"/>
<path d="M13.2143 116.824C13.0103 116.824 12.8347 116.67 12.8121 116.462L9.93379 89.9958C9.91313 89.8059 10.0278 89.6274 10.2092 89.5674C20.6115 86.1222 28.6968 81.8937 36.4251 75.8569C36.6015 75.7191 36.8562 75.7505 36.9939 75.9268C37.1316 76.1031 37.1003 76.3577 36.9239 76.4955C29.1962 82.5319 21.1199 86.7763 10.7747 90.2333L13.6176 116.375C13.6418 116.597 13.4811 116.797 13.2586 116.821C13.2438 116.823 13.229 116.824 13.2143 116.824Z" fill="#101111"/>
</svg>
