<svg width="160" height="117" viewBox="0 0 160 117" fill="none" xmlns="http://www.w3.org/2000/svg">
<path fill-rule="evenodd" clip-rule="evenodd" d="M8.59719 49.9694H8.24649C3.70741 49.9694 0 53.7604 0 58.4018C0 63.0432 3.71743 66.8342 8.24649 66.8342H8.59719C13.1363 66.8342 16.8437 63.0432 16.8437 58.4018C16.8437 53.7604 13.1262 49.9694 8.59719 49.9694ZM52.5952 0H146.874C154.088 0 159.99 6.03486 160 13.4427V103.422C160 110.8 154.098 116.834 146.884 116.834H52.6052C45.3908 116.834 39.489 110.8 39.489 103.422V100.574H23.006C18.4669 100.574 14.7595 96.7831 14.7595 92.1417C14.7595 87.5003 18.4669 83.7093 23.006 83.7093H39.489H52.9559H61.9539C66.493 83.7093 70.2004 79.9183 70.2004 75.2769C70.2004 70.6355 66.483 66.8445 61.9539 66.8445H59.9198H39.489H32.4048C27.8657 66.8445 24.1583 63.0535 24.1583 58.4121C24.1583 53.7707 27.8657 49.9797 32.4048 49.9797H39.489H59.9198H66.0721C70.6112 49.9797 74.3186 46.1887 74.3186 41.5575C74.3186 36.9161 70.6012 33.1251 66.0721 33.1251H53.8778H39.479H22.2946C17.7555 33.1251 14.0481 29.3341 14.0481 24.6927C14.0481 20.0513 17.7555 16.2603 22.2946 16.2603H39.479V13.4119C39.479 6.03486 45.3808 0 52.5952 0ZM132.65 71.6358C139.447 71.6358 144.957 66.0012 144.957 59.0506C144.957 52.1 139.447 46.4655 132.65 46.4655C125.852 46.4655 120.342 52.1 120.342 59.0506C120.342 66.0012 125.852 71.6358 132.65 71.6358Z" fill="white"/>
</svg>
